/* XPM */
static char *b4aba9e11a8349a7a0503da9682e2e4cbKv3sHoYVtqUD6Rp[] = {
/* columns rows colors chars-per-pixel */
"64 64 21 1 ",
"  c gray10",
". c #1E1E1E",
"X c #232323",
"o c #272727",
"O c gray17",
"+ c #2F2F2F",
"@ c gray20",
"# c gray21",
"$ c #393939",
"% c #3C3C3C",
"& c gray25",
"* c gray28",
"= c gray29",
"- c #4C4C4C",
"; c #515151",
": c gray33",
"> c gray35",
", c #5F5F5F",
"< c #606060",
"1 c #656565",
"2 c #808080",
/* pixels */
"                                                                ",
"                                                                ",
"1111111<@@@+  @@@@@@@$111111111111111,  @$111111111111111,@@@@@+",
"1111111<@@@+  @@@@@@@$111111111111111<  @$111111111111111<@@@@@+",
"1111111<@@@+  @@@@@@@$111111111111111<  @$111111111111111<@@@@@+",
"1111111<@@@+  @@@@@@@$111111111111111<  @$111111111111111<@@@@@+",
"=======*@@@+  @@@@@@@#===============*  @#================@@@@@+",
"@@@@@@@@@@@+  @@@@@@@@@@@@@@@@@@@@@@@@  @@@@@@@@@@@@@@@@@@@@@@@+",
"@@@@@@@@@@@+  @@@@@@@@@@@@@@@@@@@@@@@@  @@@@@@@@@@@@@@@@@@@@@@@+",
"@@@@@@@@@@@+  @@@@@@@@@@@@@@@@@@@@@@@@  @@@@@@@@@@@@@@@@@@@@@@@+",
"@@@@@@@@@@@+  @@@@@@@@@@@@@@@@@@@@@@@@  @@@@@@@@@@@@@@@@@@@@@@@+",
"+++++++++++O  ++++++++++++++++++++++++  +++++++++++++++++++++++O",
"                                                                ",
"  ....OOOOOOOO                                    OO  ..OOOOOOOO",
"  @@@$11111111                                    1<  @$11111111",
"  @@@$11111111                                    1<  @$11111111",
"  @@@$11111111    @@@@@@@@@@@@@@@@@@@@@@@@@@@@    1<  @$11111111",
"  @@@$11111111    @@@@@@@@@@@@@@@@@@@@@@@@@@@@    1<  @$11111111",
"  @@@#&&&&&&&&    @@@@@@@@@@@@@@@@##@@@@@@@@@@    &%  @#&&&&&&&&",
"  @@@@@@@@@@@@    @@@$$$$$$$$$$$$$$$$$$$$$$@@@    @@  @@@@@@@@@@",
"  @@@@@@@@@@@@    @@@1111111111111111111111@@@    @@  @@@@@@@@@@",
"  @@@@@@@@@@@@    @@@1111111111111111111111@@@    @@  @@@@@@@@@@",
"  @@@@@@@@@@@@    @@@1111111111111111111111@@@    @@  @@@@@@@@@@",
"  OOOOOOOOOOOO    @@@1111111111111111111111@@@    OO  OOOOOOOOOO",
"                  @@@1111111111111111111111@@@                  ",
"%%%%%%%%%$XX .    @@@1111111111111111111111@@@    %%%%%%%%%$XXXX",
"111111111<@+ o    @@@1111111111111111111111@@@    111111111<@@@+",
"111111111<@+ o    @@@1111111111111111111111@@@    111111111<@@@+",
"111111111<@+ o    @@@1111111111111111111111@@@    111111111<@@@+",
"111111111<@+ o    @@@1111111111111111111111@@@    111111111<@@@+",
"##########@+ .    @@#1111111111111111111111@@@    ##########@@@+",
"@@@@@@@@@@@+ .    @@#1111111111111111111111@@@    @@@@@@@@@@@@@+",
"@@@@@@@@@@@+ .    @@@1111111111111111111111@@@    @@@@@@@@@@@@@+",
"@@@@@@@@@@@+ .    @@@1111111111111111111111@@@    @@@@@@@@@@@@@+",
"@@@@@@@@@@@+ .    @@@1111111111111111111111@@@    @@@@@@@@@@@@@+",
"oooooooooooX .    @@@1111111111111111111111@@@    oooooooooooooX",
"                  @@@1111111111111111111111@@@                  ",
"  OOOOOO------    @@@111111111111111<<<<<<1@@@    Oo  OOO+------",
"  @@@@@$111111    @@@111111111111111#$$$$*1@@@    @+  @@@$111111",
"  @@@@@$111111    @@@111111111111111#2221*1@@@    @+  @@@$111111",
"  @@@@@$111111    @@@111111111111111@2221*1@@@    @O  @@@$111111",
"  @@@@@$,,,,,,    @@@111111111111111@2221*1@@@    @O  @@@$,,,,,,",
"  @@@@@@@@@@@@    @@@111111111111111@,,,-*1@@@    @+  @@@@@@@@@@",
"  @@@@@@@@@@@@    @@@111111111111111=====:1@@@    @+  @@@@@@@@@@",
"  @@@@@@@@@@@@    @@#1111111111111111111111@@@    @+  @@@@@@@@@@",
"  @@@@@@@@@@@@    @@#1111111111111111111111@@@    @+  @@@@@@@@@@",
"  @@@@@@@@@@@@    @@#1111111111111111111111@@@    @+  @@@@@@@@@@",
"  ............    @@@1111111111111111111111@@@    ..  ..........",
"                  @@@1111111111111111111111@@@                  ",
">>>>>>>>>:+O X    @@@1111111111111111111111@@@    >>>>>>>>>:+++O",
"111111111<@+ o    @@@1111111111111111111111@@@    111111111<@@@+",
"111111111<@+ o    @@@1111111111111111111111@@@    111111111<@@@+",
"111111111<@+ o    @@@1111111111111111111111@@@    111111111<@@@+",
":::::::::;@+ o    @@@1111111111111111111111@@@    :::::::::;@@@+",
"@@@@@@@@@@@+ .    @@@1111111111111111111111@@@    @@@@@@@@@@@@@+",
"@@@@@@@@@@@+ .    @@@1111111111111111111111@@@    @@@@@@@@@@@@@+",
"@@@@@@@@@@@+ .    @@@1111111111111111111111@@@    @@@@@@@@@@@@@+",
"@@@@@@@@@@@+ .    @@@1111111111111111111111#@@    @@@@@@@@@@@@@+",
"@@@@@@@@@@@+ .    @@@1111111111111111111111@@@    @@@@@@@@@@@@@+",
"                  @@@1111111111111111111111@@@                  ",
"                  @@@1111111111111111111111@@@                  ",
"  @@@@@@@@@@@@    @@@1111111111111111111111@@@    @@  @@@@@@@@@@",
"  @@@@@@@@@@@@    @@@1111111111111111111111@@@    @@  @@@@@@@@@@",
"  @@@@@@@@@@@@....@@@<<<<<<<<<<<<<<<<<<<<<<@@@....@@  @@@@@@@@@@"
};
