/* XPM */
static char *_a92ba24a9ce46bedd8ed1ae75cac51cp5VQT2wquejFkdLv[] = {
/* columns rows colors chars-per-pixel */
"64 64 214 2 ",
"   c #23130F",
".  c #2B1B0D",
"X  c #201011",
"o  c #281815",
"O  c #21151D",
"+  c #2D1F1E",
"@  c #301E11",
"#  c #33230C",
"$  c #3B2B0B",
"%  c #2F221A",
"&  c #392416",
"*  c #211724",
"=  c #231924",
"-  c #211729",
";  c #231A2B",
":  c #231B33",
">  c #231E3C",
",  c #2F272F",
"<  c #332727",
"1  c #382B2B",
"2  c #3E342E",
"3  c #26223C",
"4  c #2A2438",
"5  c #43330B",
"6  c #4C3B0B",
"7  c #503E0D",
"8  c #402D11",
"9  c #4C2818",
"0  c #562F1B",
"q  c #473514",
"w  c #6F3C1F",
"e  c #472A23",
"r  c #522E24",
"t  c #483525",
"y  c #583422",
"u  c #413434",
"i  c #473B37",
"p  c #53430A",
"a  c #5B4B09",
"s  c #574517",
"d  c #65530B",
"f  c #6C5A0A",
"g  c #6B5611",
"h  c #6B5516",
"j  c #745C18",
"k  c #78660A",
"l  c #7A6416",
"z  c #514220",
"x  c #4D4134",
"c  c #544A39",
"v  c #794529",
"b  c #685326",
"n  c #63473A",
"m  c #724F30",
"M  c #7A4A36",
"N  c #796234",
"B  c #241F41",
"V  c #252144",
"C  c #2A2847",
"Z  c #25244C",
"A  c #28294D",
"S  c #373146",
"D  c #252554",
"F  c #2B2C54",
"G  c #252659",
"H  c #292D5B",
"J  c #2D3255",
"K  c #2C325C",
"L  c #353A59",
"P  c #262861",
"I  c #272D6E",
"U  c #282E6B",
"Y  c #2D3464",
"T  c #2F3967",
"R  c #2B336A",
"E  c #303B6B",
"W  c #272E74",
"Q  c #2A3474",
"!  c #2E3A74",
"~  c #29337B",
"^  c #2E3B7C",
"/  c #313F74",
"(  c #3A445E",
")  c #39476B",
"_  c #34437A",
"`  c #4E4343",
"'  c #564B4A",
"]  c #564C4C",
"[  c #5A5147",
"{  c #494355",
"}  c #5A5050",
"|  c #5E5E54",
" . c #645747",
".. c #7C5E41",
"X. c #655853",
"o. c #655C5C",
"O. c #6B6757",
"+. c #72725D",
"@. c #645D62",
"#. c #6C6363",
"$. c #706660",
"%. c #726B6B",
"&. c #7C7A60",
"*. c #7D7676",
"=. c #7E7879",
"-. c #826D0D",
";. c #8B740E",
":. c #8E7412",
">. c #8A7215",
",. c #937B13",
"<. c #8E532B",
"1. c #965328",
"2. c #88593B",
"3. c #A75B29",
"4. c #8E712F",
"5. c #977A25",
"6. c #B86F39",
"7. c #C96F32",
"8. c #D17738",
"9. c #885840",
"0. c #8D6843",
"q. c #986945",
"w. c #A77645",
"e. c #B87A47",
"r. c #A87853",
"t. c #817A77",
"y. c #837D7C",
"u. c #C27F48",
"i. c #9C8218",
"p. c #A48817",
"a. c #AD8D17",
"s. c #AE901E",
"d. c #A48B23",
"f. c #AC9127",
"g. c #B69829",
"h. c #BD9E2D",
"j. c #AE8F36",
"k. c #BFA02F",
"l. c #C0A02D",
"z. c #C6A739",
"x. c #B38E4A",
"c. c #B68D4A",
"v. c #B48654",
"b. c #B08058",
"n. c #BE9457",
"m. c #8C8B6A",
"M. c #B69B6D",
"N. c #AAA878",
"B. c #B2B17E",
"V. c #CC8549",
"C. c #CB8D53",
"Z. c #C29859",
"A. c #DA9859",
"S. c #CCAD43",
"D. c #D1B145",
"F. c #D5B549",
"G. c #D1AD53",
"H. c #DEBE55",
"J. c #DBA366",
"K. c #E0A161",
"L. c #E3AA6A",
"P. c #E7B777",
"I. c #E3C35C",
"U. c #E6C661",
"Y. c #E9C964",
"T. c #EECE6B",
"R. c #F0D06E",
"E. c #F6D675",
"W. c #F8D878",
"Q. c #2E3C84",
"!. c #303E85",
"~. c #334383",
"^. c #31428A",
"/. c #374B8A",
"(. c #3D538C",
"). c #354B93",
"_. c #394F95",
"`. c #395196",
"'. c #395299",
"]. c #3E599E",
"[. c #3E5BA0",
"{. c #425C9D",
"}. c #415EA1",
"|. c #4463A5",
" X c #4665A8",
".X c #4769AB",
"XX c #496AAA",
"oX c #4A6FB0",
"OX c #4E73B3",
"+X c #5076B6",
"@X c #5076B8",
"#X c #527BBB",
"$X c #837E82",
"%X c #5681C2",
"&X c #5985C5",
"*X c #5D8BCB",
"=X c #6090D0",
"-X c #888383",
";X c #8B8686",
":X c #938E8E",
">X c #9B9898",
",X c #A19E9E",
"<X c #B7B783",
"1X c #A4A1A1",
"2X c #ACABAB",
"3X c #B0AFAF",
"4X c #B4B3B3",
"5X c #B8B7B7",
"6X c #BBBBBB",
"7X c #C1C187",
"8X c #ECC788",
"9X c #F0D090",
"0X c #EAEA9A",
"qX c #C0C0C0",
/* pixels */
"qXqXqXqXqXqXqXqXqXqXqXqXqXqXqXqXqXqXqXqXqXqXqXqXqXqXqXqXqXqXqXqXqXqXqXqXqXqXqXqXqXqXqXqXqXqXqXqXqXqXqXqXqXqXqXqXqXqXqXqXqXqXqXqX",
"qXqXqXqXqXqXqXqXqXqXqXqXqXqXqXqXqXqXqXqXqXqXqXqXqXqXqXqXqXqXqXqXqXqXqXqXqXqXqXqXqXqXqXqXqXqXqXqXqXqXqXqXqXqXqXqXqXqXqXqXqXqXqXqX",
"qXqXqXqXqXqXqXqXqXqXqXqXqXqXqXqXqXqXqXqXqXqXqXqXqXqXqXqXqXqXqXqXqXqXqXqXqXqXqXqXqXqXqXqXqXqXqXqXqXqXqXqXqXqXqXqXqXqXqXqXqXqXqXqX",
"qXqXqXqXqXqXqXqXqXqXqXqXqXqXqXqXqXqXqXqXqXqXqXqXqXqXqXqXqXqXqXqXqXqXqXqXqXqXqXqXqXqXqXqXqXqXqXqXqXqXqXqXqXqXqXqXqXqXqXqXqXqXqXqX",
"qXqXqXqXqXqXqXqXqXqXqXqXqXqXqXqXqX4Xi i i i i #.qXqXqXqXqXqXqXqXqXqXqXqXqXqXqXqXqXqXqXqXqXqXqXqXqXqXqXqXqXqXqXqXqXqXqXqXqXqXqXqX",
"qXqXqXqXqXqXqXqXqXqXqXqXqXqXqX>X} [ p 4.4.4.l b } } 4XqXqXqXqXqXqXqXqXqXqXqXqXqXqXqXqXqXqXqXqXqXqXqXqXqXqXqXqXqXqXqXqXqXqXqXqXqX",
"qXqXqXqXqXqXqXqXqXqXqXqXqX;X%. .p h i.d.z.D.S.j.N h $.%.,XqXqXqXqXqXqXqXqXqXqXqXqXqXqXqXqXqXqXqXqXqXqXqXqXqXqXqXqXqXqXqXqXqXqXqX",
"qXqXqXqXqXqXqXqXqXqXqXqX:Xc 5 d ,.p.f.k f.z.H.T.I.z.b 7 O.-X>XqXqXqXqXqXqXqXqXqXqXqXqXqXqXqXqXqXqXqXqXqXqXqXqXqXqXqXqXqXqXqXqXqX",
"qXqXqXqXqXqXqXqXqXqXqXqXX.s f l >.k d 6 5.f.l.I.E.W.U.g.h $ c 1XqXqXqXqXqXqXqXqXqXqXqXqXqXqXqXqXqXqXqXqXqXqXqXqXqXqXqXqXqXqXqXqX",
"qXqXqXqXqXqXqXqXqXqXqXqXqXX.+ + + + + X a -.g.H.I.E.E.U.F.g.j i 4X4X6XqXqXqXqXqXqXqXqXqXqXqXqXqXqXqXqXqXqXqXqXqXqXqXqXqXqXqXqXqX",
"qXqXqXqXqXqXqXqXqXqXqXqXqX6X5X5X5X5X5X1 6 f i.D.I.I.E.E.E.Y.z.>.o o 1XqXqXqXqXqXqXqXqXqXqXqXqXqXqXqXqXqXqXqXqXqXqXqXqXqXqXqXqXqX",
"qXqXqXqXqXqXqXqXqXqXqXqXqXqXqXqXqXqXqX1Xx p ,.h.D.I.I.E.W.E.R.U.x.l t 2 y.qXqXqXqXqXqXqXqXqXqXqXqXqXqXqXqXqXqXqXqXqXqXqXqXqXqXqX",
"qXqXqXqXqXqXqXqXqXqXqXqXqXqXqXqXqXqXqXqX` 6 -.p.g.D.H.I.U.H.G.Z.n.w.0.M n ` %.qXqXqXqXqXqXqXqXqXqXqXqXqXqXqXqXqXqXqXqXqXqXqXqXqX",
"qXqXqXqXqXqXqXqXqXqXqXqXqXqXqXqXqXqXqXqX` 5 f ;.p.g.l.c.c.x.v.b.b.b.b.r.2.n n o.o.o.o.o.o.y.qXqXqXqXqXqXqXqXqXqXqXqXqXqXqXqXqXqX",
"qXqXqXqXqXqXqXqXqXqXqXqXqXqXqXqXqXqXqXqX=.x p k >.5.5.q.q.q.r.b.b.j.c.Z.Z.n.v.N m b s 6 5 c =.=.=.=.=.,XqXqXqXqXqXqXqXqXqXqXqXqX",
"qXqXqXqXqXqXqXqXqXqXqXqXqXqXqXqXqXqXqXqXqXo.8 h j 9.9.q.q.q.w.c.n.z.D.I.R.W.W.E.U.F.z.f.5.l q q 8 # # X.:X>XqXqXqXqXqXqXqXqXqXqX",
"qXqXqXqXqXqXqXqXqXqXqXqXqXqXqXqXqXqXqXqXqXo.e M M 2.2.4.q.j.h.D.I.E.W.W.W.W.E.E.E.E.E.T.I.D.l.a.,.k f 6 # x 2XqXqXqXqXqXqXqXqXqX",
"qXqXqXqXqXqXqXqXqXqXqXqXqXqXqXqXqXqXqXqXqXo.e M M 2.:.p.h.F.Y.W.E.E.E.E.E.E.T.H.H.H.z.g.a.a.a.a.a.a.a.a.p.f < qXqXqXqXqXqXqXqXqX",
"qXqXqXqXqXqXqXqXqXqXqXqXqXqXqXqXqXqXqXqXqXo.e m k :.p.h.F.Y.E.W.E.I.D.h.s.,.>.l g s $ # @ @ @ @ @ 6 p p a 6 < qXqXqXqXqXqXqXqXqX",
"qXqXqXqXqXqXqXqXqXqXqXqXqXqXqXqXqXqXqXqX#.s d l ,.h.D.I.R.T.H.D.k.d.>.f 6 $ # # . .   X X X X   $ 6 p $ . i >XqXqXqXqXqXqXqXqXqX",
"qXqXqXqXqXqXqXqXqXqXqXqXqXqXqXqXqXqXqX#.z d k ,.g.F.H.H.S.j.5.j s 6 $ # . X X X X X X X X . $ 5 p $ # [ y.:XqXqXqXqXqXqXqXqXqXqX",
"qXqXqXqXqXqXqXqXqXqXqXqXqXqXqXqXqX5X%.s f ;.i.g.z.h.j.5.h 7 $ # X X X X X X o 2 X X   . # $ 5 $ $ X.#.>XqXqXqXqXqXqXqXqXqXqXqXqX",
"qXqXqXqXqXqXqXqXqXqXqXqXqXqXqXqX4Xt.8 k ,.p.s.d.5.d p $ . o < 1 + X X X X o u O.X X . # $ $ 8 ] ] 2XqXqXqXqXqXqXqXqXqXqXqXqXqXqX",
"qXqXqXqXqXqXqXqXqXqXqXqXqXqXqX4Xy.$ k ;.i.i.-.a $ X X X X 1 | +.' X X X X < | m.X X # t u u } qXqXqXqXqXqXqXqXqXqXqXqXqXqXqXqXqX",
"qXqXqXqXqXqXqXqXqXqXqXqXqXqX6X=.$ k ;.;.f p # X X X X X X i m.<Xm.o X X X < O.N.  O X *.6XqXqXqXqXqXqXqXqXqXqXqXqXqXqXqXqXqXqXqX",
"qXqXqXqXqXqXqXqXqXqXqXqXqXqX%.q k k f p #     X X X X X X c B.0XB.o X X X < O.N.X P - o %.qXqXqXqXqXqXqXqXqXqXqXqXqXqXqXqXqXqXqX",
"qXqXqXqXqXqXqXqXqXqXqXqXqX#.s f d 6 . .   X X X X X X X X c <X0XB.o X X X X 2 O.X ~.(._ J #.qXqXqXqXqXqXqXqXqXqXqXqXqXqXqXqXqXqX",
"qXqXqXqXqXqXqXqXqXqXqXqX#.z a d 6 @ D H Y Y E T H D O X X x m.7X&.o X X X X o < X Q ).'.~.L #.qXqXqXqXqXqXqXqXqXqXqXqXqXqXqXqXqX",
"qXqXqXqXqXqXqXqXqXqXqXqXu 5 p 6 % Z ^ Q.^.'.|.|.].).K F Z 4 c  .2 X X X X X X X X U Q.}.}.Y u qXqXqXqXqXqXqXqXqXqXqXqXqXqXqXqXqX",
"qXqXqXqXqXqXqXqXqXqXqXqX%.t $ % Z ~ Q.^.'. XOX@XOXXX|.].).T C 3 : X X X X X X O > ^ `..X XT u qXqXqXqXqXqXqXqXqXqXqXqXqXqXqXqXqX",
"qXqXqXqXqXqXqXqXqXqXqXqXqX%.< : ~ Q.Q.).'.}. X.XoXOXOX#X+X.X[.).^ 3 ; - O X O > Q.].OX+X|.Y u qXqXqXqXqXqXqXqXqXqXqXqXqXqXqXqXqX",
"qXqXqXqXqXqXqXqXqXqXqXqXqX4X@.B ~ ~ Q.^.~ ~ ~ ^.'.|.oX&X*X*X*X@X.X].).!.A = 3 Q.].OX&XOX).F 2 2X6XqXqXqXqXqXqXqXqXqXqXqXqXqXqXqX",
"qXqXqXqXqXqXqXqXqXqXqXqXqX} V ~ ^.^.^.^.!.~ ~ ~ ^.^.^.}.OX%X=X=X=X=X=X#XXXXXXX@X=X=XOX`.A X X + 4XqXqXqXqXqXqXqXqXqXqXqXqXqXqXqX",
"qXqXqXqXqXqXqXqXqXqXqXqX' F Q `.OXOXOXOXoX`.~ ~ ~ ^.^.^./.`. X#X=X=X=X*X*X*X*X*X*X#X}.^.V 3 ~.! 1 < < =.qXqXqXqXqXqXqXqXqXqXqXqX",
"qXqXqXqXqXqXqXqXqXqX6X' F ~.|.oX#X*X*X*X*X+X'.Q.Q.~ Q.^.^.^.).|.OX#X*X=X=X=X=X*XOX}.^.Z J (.(., 1.w.<.n ` #.qXqXqXqXqXqXqXqXqXqX",
"qXqXqXqXqXqXqXqXqX3X} A ~.}.OX#X*X*X].) ( L A F Q.~ Q.^.^.^.^.).].}.OX#X%X%X%X#X].^.Z J /./.S y J.K.6.1.2.M #.qXqXqXqXqXqXqXqXqX",
"qXqXqXqXqXqXqXqXqX1XO I {.XXOX%X&X{.Z n m ....n F ~ ~ Q.^.^.^.^.).).]..XOXOXOX.X).D A ~.'.Y @ v P.C.e.C.A.w.< qXqXqXqXqXqXqXqXqX",
"qXqXqXqXqXqXqXqXqX1XO I '. XXXOX{.A 0 C.K.J.J.e.r G W Q.^.^.^.^.^.).].|.XXXXXXXX^.O / `._ S 0 <.e.6.C.L.P.M.< qXqXqXqXqXqXqXqXqX",
"qXqXqXqXqXqXqXqXqX,XO I ).}. X(.F r 8.A.L.V.e.u.1.X I Q.^.).'.'.'.'. X.XXXOX%X%XW O / ).F 9 3.3.v C.K.P.9XM.< qXqXqXqXqXqXqXqXqX",
"qXqXqXqXqXqXqXqXqX,XO I ).`.].) r K.K.K.8XP.e.y X X ^ ).'.}.XXXXXXXXOX@X@X%X=X%XQ O / ^.A 9 3.7.3.C.A.P.8XM.2 qXqXqXqXqXqXqXqXqX",
"qXqXqXqXqXqXqXqXqX,XO I Q.).'.T r K.K.8X9X9XJ.6.<.X ^ ).}. XXXOXOXOXOX@X&X*X=X&XQ.O T ^.A 9 1.v 7.8.8.8.<.` 4XqXqXqXqXqXqXqXqXqX",
"qXqXqXqXqXqXqXqXqX,XO I Q.^.).T 9 8.A.8X9X9XP.V.3.O ~.).}.XXOX*X*X*X*X*X*X=X*XOX).* R ^.A & v v 3.3.3.w  .1XqXqXqXqXqXqXqXqXqXqX",
"qXqXqXqXqXqXqXqXqX4Xy.4 Q ^.^.K o w 8.8X9XL.V.3.r G ).'.'.].|.+X+X#X%X*X=X*X#XOX).= R ^.A   & & 9 9 9 X.>XqXqXqXqXqXqXqXqXqXqXqX",
"qXqXqXqXqXqXqXqXqXqX5X+ R ^.^.! 3   w 0.v.6.1.9 * ~ Q.Q.).'.[.OX#X&X&X#X#X+XXX.X_.= R ^.A X O A J O ] >XqXqXqXqXqXqXqXqXqXqXqXqX",
"qXqXqXqXqXqXqXqXqXqX5X+ R Q.).).T X X X 0 w r - * ~ ~ ~ ).[..X#X=X=X=X#X+XOXXX|.).* R ^.A X - ^.).; ;XqXqXqXqXqXqXqXqXqXqXqXqXqX",
"qXqXqXqXqXqXqXqXqXqX5X+ P Q.).).! - X X * ; D G * ^.^.^.'.XXOX@X*X*X*X*X=X*X@XXX`.3 H ^ A O V ^.).; ;XqXqXqXqXqXqXqXqXqXqXqXqXqX",
"qXqXqXqXqXqXqXqXqXqX5X+ P Q.).'.).I X X G ^.^.G * ^.!.).'.]. XXXOXOXOX&X*X*X=X=X*X'.3 F C 3 ^.'.'.; ;XqXqXqXqXqXqXqXqXqXqXqXqXqX",
"qXqXqXqXqXqXqXqXqXqX5X+ P Q.).].}.^ X X G ^.^.G * ^.^.).'.'.]. XXXXXOX@X@X%X=X=X*X*X'.3 X 3 ). X'.; ;XqXqXqXqXqXqXqXqXqXqXqXqXqX",
"qXqXqXqXqXqXqXqXqXqX5X+ P Q.).].}.^ X X G Q.H : I ^.^.).'.'.'.].XXXXXXXXOX@X@X@X@XXX'.~.C 3 '. X^.= ;XqXqXqXqXqXqXqXqXqXqXqXqXqX",
"qXqXqXqXqXqXqXqXqXqX5X+ P Q.^.).`.^ X Z ^ ^.F ; ~ ^.).).'.'.).).].]. XXXXX.XXXXXXXXX|.).A C }.`.3 =.3XqXqXqXqXqXqXqXqXqXqXqXqXqX",
"qXqXqXqXqXqXqXqXqXqX6Xy.S U Q.^.).^ X R ^.Q.Z : Q.).).`.'.).^.^.'.'.].].].}.XXXXXXXXXX'.A C '.^.O ,XqXqXqXqXqXqXqXqXqXqXqXqXqXqX",
"qXqXqXqXqXqXqXqXqXqXqXqXu D Q.^.).^.B ~.^.U V D ^.`.`.).).^.Q.^.'.'.'.'.'.|.XXXXXXXXOX X_ A K F o.2XqXqXqXqXqXqXqXqXqXqXqXqXqXqX",
"qXqXqXqXqXqXqXqXqXqXqXqX#.J Q ^.).).~ ^.Q.V > Q.^.).).^.Q.~ ~ ^.'.'.'.'.}.XXXXXXXXXXOX@X.X_ 4 4 -X4XqXqXqXqXqXqXqXqXqXqXqXqXqXqX",
"qXqXqXqXqXqXqXqXqXqXqXqXqX} Z Q.^.).^.Q.R > Z Q.Q.Q.Q.Q.~ ~ Q.^.'.'.'.'.}.XXXXXXXXXXOX@X&X&X X^.- ;X4XqXqXqXqXqXqXqXqXqXqXqXqXqX",
"qXqXqXqXqXqXqXqXqXqXqXqX6X] V ~ Q.Q.Q.Q : Z ~ Q.~ ~ ~ ~ ~ Q.^.'.`.`.`.|.XXXX X XXXOX@X&X=X*X&X|.^.= ;XqXqXqXqXqXqXqXqXqXqXqXqXqX",
"qXqXqXqXqXqXqXqXqXqXqXqX` F B > ~ ~ ~ - G W ~ ~ ~ ~ ~ ~ Q.Q.^.'.'. X X XXXXXXXOXOX*X*X*X=X&X|.^.~ - ;XqXqXqXqXqXqXqXqXqXqXqXqXqX",
"qXqXqXqXqXqXqXqXqXqX6X` F I I Z - - - G ~ Q.Q.^.).).).).).).).'.|. XXXoXOXOXOX@XOXOXOXOX|.).Q - - $X4XqXqXqXqXqXqXqXqXqXqXqXqXqX",
"qXqXqXqXqXqXqXqXqXqX6X;XS : G U D D D W ~ ~ Q.^.^.^.^.^.).].}.|. X X X|.}.}.[.'.'.^.^.^.Y > S -X-X4XqXqXqXqXqXqXqXqXqXqXqXqXqXqX",
"qXqXqXqXqXqXqXqXqXqXqXqXy.%.{ V V V V V V V V A A A A A F J L L L L L J J J F A Z V V V { %.y.qXqXqXqXqXqXqXqXqXqXqXqXqXqXqXqXqX",
"qXqXqXqXqXqXqXqXqXqXqXqXqXqX;X} } } } } } } } } } } } } } } } } } } } } } } } } } } } } ;XqXqXqXqXqXqXqXqXqXqXqXqXqXqXqXqXqXqXqX",
"qXqXqXqXqXqXqXqXqXqXqXqXqXqXqXqXqXqXqXqXqXqXqXqXqXqXqXqXqXqXqXqXqXqXqXqXqXqXqXqXqXqXqXqXqXqXqXqXqXqXqXqXqXqXqXqXqXqXqXqXqXqXqXqX",
"qXqXqXqXqXqXqXqXqXqXqXqXqXqXqXqXqXqXqXqXqXqXqXqXqXqXqXqXqXqXqXqXqXqXqXqXqXqXqXqXqXqXqXqXqXqXqXqXqXqXqXqXqXqXqXqXqXqXqXqXqXqXqXqX",
"qXqXqXqXqXqXqXqXqXqXqXqXqXqXqXqXqXqXqXqXqXqXqXqXqXqXqXqXqXqXqXqXqXqXqXqXqXqXqXqXqXqXqXqXqXqXqXqXqXqXqXqXqXqXqXqXqXqXqXqXqXqXqXqX",
"qXqXqXqXqXqXqXqXqXqXqXqXqXqXqXqXqXqXqXqXqXqXqXqXqXqXqXqXqXqXqXqXqXqXqXqXqXqXqXqXqXqXqXqXqXqXqXqXqXqXqXqXqXqXqXqXqXqXqXqXqXqXqXqX"
};
