/* XPM */
static char *_6dd1b62b6904474ee51050c9644e1b6dNgJVYmUR8NMuMRF[] = {
/* columns rows colors chars-per-pixel */
"64 64 206 2 ",
"   c #23130F",
".  c #2C1C0D",
"X  c #201011",
"o  c #2B1916",
"O  c #21141C",
"+  c #2B1D1D",
"@  c #301F10",
"#  c #33230C",
"$  c #3B2B0B",
"%  c #2D201D",
"&  c #372512",
"*  c #211725",
"=  c #231A2B",
"-  c #241A28",
";  c #231C33",
":  c #241E3A",
">  c #2B2225",
",  c #322423",
"<  c #372D2B",
"1  c #25213C",
"2  c #29243A",
"3  c #383032",
"4  c #3E3332",
"5  c #44330C",
"6  c #4A370F",
"7  c #4C3C0A",
"8  c #482719",
"9  c #493716",
"0  c #573515",
"q  c #743E1F",
"w  c #4C2E27",
"e  c #433629",
"r  c #443836",
"t  c #463A3A",
"y  c #5D3E31",
"u  c #663820",
"i  c #534309",
"p  c #5B4B0A",
"a  c #4F4018",
"s  c #584617",
"d  c #63520A",
"f  c #68550C",
"g  c #6C5B09",
"h  c #725E0D",
"j  c #695517",
"k  c #735B17",
"l  c #76640A",
"z  c #7D6A0B",
"x  c #7A6313",
"c  c #514837",
"v  c #564C3D",
"b  c #644829",
"n  c #74522C",
"m  c #794B38",
"M  c #776031",
"N  c #231F41",
"B  c #242144",
"V  c #2A2745",
"C  c #26254B",
"Z  c #29294B",
"A  c #333449",
"S  c #252552",
"D  c #292A51",
"F  c #26285C",
"G  c #2A2D5D",
"H  c #2C3155",
"J  c #2D335A",
"K  c #353757",
"L  c #272D69",
"P  c #2C3363",
"I  c #2F3967",
"U  c #2C356D",
"Y  c #323D69",
"T  c #272F75",
"R  c #2C3572",
"E  c #2E3975",
"W  c #29337A",
"Q  c #2E3B7D",
"!  c #323F77",
"~  c #413B51",
"^  c #38425E",
"/  c #3A4769",
"(  c #354578",
")  c #4C4548",
"_  c #524747",
"`  c #594C42",
"'  c #544A4A",
"]  c #5D5546",
"[  c #5B5151",
"{  c #5C565D",
"}  c #644C41",
"|  c #655B4B",
" . c #645A57",
".. c #665D5D",
"X. c #686859",
"o. c #78745A",
"O. c #415374",
"+. c #655E66",
"@. c #6C6362",
"#. c #676269",
"$. c #736A63",
"%. c #726A6A",
"&. c #787466",
"*. c #777277",
"=. c #7B7474",
"-. c #85700C",
";. c #8C750F",
":. c #836C14",
">. c #897111",
",. c #947B11",
"<. c #967C15",
"1. c #8F5029",
"2. c #895B3A",
"3. c #8D7425",
"4. c #9A7926",
"5. c #947038",
"6. c #AF6A37",
"7. c #CB6D2F",
"8. c #D47B3B",
"9. c #875A40",
"0. c #976847",
"q. c #99744C",
"w. c #A77947",
"e. c #A77752",
"r. c #827D7D",
"t. c #9D8318",
"y. c #AD8D17",
"u. c #A78A1A",
"i. c #A38A23",
"p. c #A68B2B",
"a. c #AC9024",
"s. c #B59729",
"d. c #BD9D2A",
"f. c #AA8B39",
"g. c #B99C36",
"h. c #C4A433",
"j. c #C6A83C",
"k. c #AE874C",
"l. c #B68D4A",
"z. c #B68A52",
"x. c #B08058",
"c. c #BF9656",
"v. c #97956C",
"b. c #A89568",
"n. c #A0A076",
"m. c #D08649",
"M. c #C2985A",
"N. c #DB9758",
"B. c #CDAE42",
"V. c #D2B246",
"C. c #D6B64B",
"Z. c #CFAA56",
"A. c #DDBD55",
"S. c #DCBD5D",
"D. c #D4A368",
"F. c #E0A161",
"G. c #E4AC6C",
"H. c #E8B878",
"J. c #E2C25B",
"K. c #E7C761",
"L. c #ECCC68",
"P. c #F1D16E",
"I. c #F5D574",
"U. c #F8D878",
"Y. c #2E3C84",
"T. c #364784",
"R. c #31428A",
"E. c #36498C",
"W. c #3E5488",
"Q. c #364C93",
"!. c #394E94",
"~. c #3B5296",
"^. c #3A5399",
"/. c #3E599D",
"(. c #3F5BA1",
"). c #405682",
"_. c #415D9D",
"`. c #4A6591",
"'. c #415EA1",
"]. c #4463A4",
"[. c #4868A8",
"{. c #496AAB",
"}. c #4B6FB0",
"|. c #4E74B4",
" X c #5176B8",
".X c #517ABA",
"XX c #5A84BF",
"oX c #5984C4",
"OX c #5D8BCB",
"+X c #6090D0",
"@X c #8A8484",
"#X c #928D8E",
"$X c #999595",
"%X c #A19D9D",
"&X c #BABA83",
"*X c #A6A3A3",
"=X c #A8A6A6",
"-X c #ADACAC",
";X c #B0AEAE",
":X c #B5B4B4",
">X c #B8B7B7",
",X c #BDBCBC",
"<X c #ECC686",
"1X c #F0D090",
"2X c #E4E497",
"3X c #C0C0C0",
/* pixels */
"3X3X3X3X3X3X3X3X3X3X3X3X3X3X3X3X3X3X3X3X3X3X3X3X3X3X3X3X3X3X3X3X3X3X3X3X3X3X3X3X3X3X3X3X3X3X3X3X3X3X3X3X3X3X3X3X3X3X3X3X3X3X3X3X",
"3X3X3X3X3X3X3X3X3X3X3X3X3X3X3X3X3X3X3X3X3X3X3X3X3X3X3X3X3X3X3X3X3X3X3X3X3X3X3X3X3X3X3X3X3X3X3X3X3X3X3X3X3X3X3X3X3X3X3X3X3X3X3X3X",
"3X3X3X3X3X3X3X3X3X3X3X3X3X3X3X3X3X3X3X3X3X3X3X3X3X3X3X3X3X3X3X3X3X3X3X3X3X3X3X3X3X3X3X3X3X3X3X3X3X3X3X3X3X3X3X3X3X3X3X3X3X3X3X3X",
"3X3X3X3X3X3X3X3X3X3X3X3X3X3X3X3X3X3X3X3X3X3X3X3X3X3X3X3X3X3X3X3X3X3X3X3X3X3X3X3X3X3X3X3X3X3X3X3X3X3X3X3X3X3X3X3X3X3X3X3X3X3X3X3X",
"3X3X3X3X3X3X3X3X3X3X3X3X3X3X3X3X3X3X3X3X3X3X3X3X3X3X3X3X3X3X3X3X3X3X3X3X3X3X3X3X=.t t t t t *X3X3X3X3X3X3X3X3X3X3X3X3X3X3X3X3X3X",
"3X3X3X3X3X3X3X3X3X3X3X3X3X3X3X3X3X3X3X3X3X3X3X3X3X3X3X3X3X3X3X3X3X3X3X3X3X3X@.[ b k 3.5.3.p ` [ #X3X3X3X3X3X3X3X3X3X3X3X3X3X3X3X",
"3X3X3X3X3X3X3X3X3X3X3X3X3X3X3X3X3X3X3X3X3X3X3X3X3X3X3X3X3X3X3X3X3X3X3X=X%.%.j M f.B.V.B.i.i.k i v %.r.3X3X3X3X3X3X3X3X3X3X3X3X3X",
"3X3X3X3X3X3X3X3X3X3X3X3X3X3X3X3X3X3X3X3X3X3X3X3X3X3X3X3X3X3X3X3X3X%X@X$.9 b g.J.L.J.j.s.g i.u.,.f 5 c #X,X3X3X3X3X3X3X3X3X3X3X3X",
"3X3X3X3X3X3X3X3X3X3X3X3X3X3X3X3X3X3X3X3X3X3X3X3X3X3X3X3X3X3X3X3X*X| $ s a.J.I.I.K.j.y.i.7 d h :.:.g s _ ,X3X3X3X3X3X3X3X3X3X3X3X",
"3X3X3X3X3X3X3X3X3X3X3X3X3X3X3X3X3X3X3X3X3X3X3X3X3X3X3X3X3X,X:X:X` j a.V.J.U.I.K.A.g.-.d X + + + + + _ 3X3X3X3X3X3X3X3X3X3X3X3X3X",
"3X3X3X3X3X3X3X3X3X3X3X3X3X3X3X3X3X3X3X3X3X3X3X3X3X3X3X3X3X:X, o x j.K.I.I.U.J.J.V.i.g 7 o -X>X>X>X>X,X3X3X3X3X3X3X3X3X3X3X3X3X3X",
"3X3X3X3X3X3X3X3X3X3X3X3X3X3X3X3X3X3X3X3X3X3X3X3X3X3X3X#X4 e x f.S.P.I.U.I.J.J.V.d.<.p e *X,X3X3X3X3X3X3X3X3X3X3X3X3X3X3X3X3X3X3X",
"3X3X3X3X3X3X3X3X3X3X3X3X3X3X3X3X3X3X3X3X3X3X3X3X3X=._ ` m 9.w.z.M.Z.A.K.K.J.V.d.u.-.i 4 3X3X3X3X3X3X3X3X3X3X3X3X3X3X3X3X3X3X3X3X",
"3X3X3X3X3X3X3X3X3X3X3X3X3X3X3X3X3X3X#X............} b m e.x.x.x.x.k.k.l.l.h.d.u.;.l 7 4 3X3X3X3X3X3X3X3X3X3X3X3X3X3X3X3X3X3X3X3X",
"3X3X3X3X3X3X3X3X3X3X3X3X=X=.=.=.=.=.v 5 6 s b n M k.c.M.M.l.f.x.x.e.0.0.0.4.4.>.l p e %.3X3X3X3X3X3X3X3X3X3X3X3X3X3X3X3X3X3X3X3X",
"3X3X3X3X3X3X3X3X3X3X*X#X@.# # $ 5 9 k 3.p.h.C.J.I.U.U.I.J.C.h.c.z.w.5.0.0.9.9.k k 6 ' 3X3X3X3X3X3X3X3X3X3X3X3X3X3X3X3X3X3X3X3X3X",
"3X3X3X3X3X3X3X3X3X-X] # 5 f l ,.y.d.B.J.L.P.I.I.I.I.U.U.U.U.U.K.C.h.p.q.5.2.2.m m w ' 3X3X3X3X3X3X3X3X3X3X3X3X3X3X3X3X3X3X3X3X3X",
"3X3X3X3X3X3X3X3X3Xt d t.y.y.y.y.y.y.y.y.a.j.A.A.A.L.I.I.I.I.I.I.U.L.C.h.y.,.2.m m w ' 3X3X3X3X3X3X3X3X3X3X3X3X3X3X3X3X3X3X3X3X3X",
"3X3X3X3X3X3X3X3X3Xt 5 p i i 7 # @ @ @ @ @ & s f x :.<.u.d.B.J.I.U.I.L.C.h.y.,.z n w ' 3X3X3X3X3X3X3X3X3X3X3X3X3X3X3X3X3X3X3X3X3X",
"3X3X3X3X3X3X3X3X3X%Xv . $ i i $   X X X X   . . # # $ 6 f :.i.d.B.A.L.P.K.V.g.<.x f a [ 3X3X3X3X3X3X3X3X3X3X3X3X3X3X3X3X3X3X3X3X",
"3X3X3X3X3X3X3X3X3X3X$Xr. .# $ i 5 $ . X X X X X X X X   # $ 6 s k 3.p.j.A.J.C.g.t.z d a  .>X3X3X3X3X3X3X3X3X3X3X3X3X3X3X3X3X3X3X",
"3X3X3X3X3X3X3X3X3X3X3X3X%X@...$ $ 5 $ # . X X X < % X X X X X X . $ 7 j 3.p.g.h.s.t.;.h 6 $.-X3X3X3X3X3X3X3X3X3X3X3X3X3X3X3X3X3X",
"3X3X3X3X3X3X3X3X3X3X3X3X3X3X:X[ ' 9 $ $ # . X X ] c o X X X X + < , o   $ 7 d 3.p.a.y.,.z 5 &.-X3X3X3X3X3X3X3X3X3X3X3X3X3X3X3X3X",
"3X3X3X3X3X3X3X3X3X3X3X3X3X3X3X3X3X@.r r e $ X X o.X.< X X X X ) X.X.4 X X X X # i z <.t.;.z 5 &.-X3X3X3X3X3X3X3X3X3X3X3X3X3X3X3X",
"3X3X3X3X3X3X3X3X3X3X3X3X3X3X3X3X3X3X3X,X@XX O X v.&.<     X X o.&Xv.c X X X X X X # 7 f ;.;.z 5 @.,X3X3X3X3X3X3X3X3X3X3X3X3X3X3X",
"3X3X3X3X3X3X3X3X3X3X3X3X3X3X3X3X3X3X3Xr.X O T O v.&.< X   X X v.2X&X| X X X X X X     . 7 f l l 6  .3X3X3X3X3X3X3X3X3X3X3X3X3X3X",
"3X3X3X3X3X3X3X3X3X3X3X3X3X3X3X3X3X3X=.A ! W.E.O | t X X X X X n.2X&X| X X X X X X X X   . . 7 d f s [ 3X3X3X3X3X3X3X3X3X3X3X3X3X",
"3X3X3X3X3X3X3X3X3X3X3X3X3X3X3X3X3X%.K ( /.Q.Y.O , o X X X X X o.&Xn.` X X X C G I Y I P G S + 5 d d a  .,X3X3X3X3X3X3X3X3X3X3X3X",
"3X3X3X3X3X3X3X3X3X3X3X3X3X3X3X3X3X_ G /.].Y.T O X X X X X X X < ] v 3 C D J E./.].]./.R.Y.Y.S > 5 i 7 , ,X3X3X3X3X3X3X3X3X3X3X3X",
"3X3X3X3X3X3X3X3X3X3X3X3X3X3X3X3X3X_ J ].[.~.Y.B O X X X X X   ; 1 V P E./.'.[.|..X|.[./.R.R.Y.S > $ 9 @.,X3X3X3X3X3X3X3X3X3X3X3X",
"3X3X3X3X3X3X3X3X3X3X3X3X3X3X3X3X3X_ J (.|..X/.Y.B O X O = ; ; E E./.[.|..X.X|.}.[.[._.T.R.Y.Y.W N , ..3X3X3X3X3X3X3X3X3X3X3X3X3X",
"3X3X3X3X3X3X3X3X3X3X3X3X3X3X3X3X3X .H E.[.OX.X(.R.V - V Y.Q./.[.|.oXOXOXoX[.].^.R.Y.F = L T W T V @.3X3X3X3X3X3X3X3X3X3X3X3X3X3X",
"3X3X3X3X3X3X3X3X3X3X3X3X3X3X3X3X3X3X..B Q.[.+X+X.X[.[.[..X+X+X+X+X+XoX].W W W Y.R.R.Y.L O T W ; %.3X3X3X3X3X3X3X3X3X3X3X3X3X3X3X",
"3X3X3X3X3X3X3X3X3X3X3X3X3X3X3X3X3X3X..: Y./..XOXOXOXOXOXOX+X+X!.Y.Y.Y.Y.Y.Q.Y.W !.]./.Y.L * O *.:X3X3X3X3X3X3X3X3X3X3X3X3X3X3X3X",
"3X3X3X3X3X3X3X3X3X3X3X3X3X3X3X3X3X3X*X+.B Y.(.OX+XO.A A A A E././.[. X X.X[.'./.].[.'.Q.Y.F O @X3X3X3X3X3X3X3X3X3X3X3X3X3X3X3X3X",
"3X3X3X3X3X3X3X3X3X3X3X3X3X3X3X3X3X3X3X*X+.: Z XXO.| q.q.2.u : Z ( [.oX+XOX.X[.[.[.[.].Q.E.Y.* @X3X3X3X3X3X3X3X3X3X3X3X3X3X3X3X3X",
"3X3X3X3X3X3X3X3X3X3X3X3X3X3X3X3X3X3X3X3X*X[ X / r 2.N.F.N.6.b o P !.[.oXOX}.[.[.[.[.].Q.E.R.C { $X3X3X3X3X3X3X3X3X3X3X3X3X3X3X3X",
"3X3X3X3X3X3X3X3X3X3X3X3X3X3X3X3X3X3X3X3X3X;X_ X m w.m.N.G.N.m.8 P Q./.|.oX[.[.[.].]./.Q.Y.R.W ; %.3X3X3X3X3X3X3X3X3X3X3X3X3X3X3X",
"3X3X3X3X3X3X3X3X3X3X3X3X3X3X3X3X3X3X3X3X3X3X,X, b.<X<X1X<XF.F.b K R./.[.|.].].]./.Q.Q.Q.R.R.W ; %.3X3X3X3X3X3X3X3X3X3X3X3X3X3X3X",
"3X3X3X3X3X3X3X3X3X3X3X3X3X3X3X3X3X3X3X3X3X3X,X, 1.m.H.1X<XF.F.N.y J /.[.|.^.^.^.Q.Q.R.R.R.Y.W ; %.3X3X3X3X3X3X3X3X3X3X3X3X3X3X3X",
"3X3X3X3X3X3X3X3X3X3X3X3X3X3X3X3X3X3X3X3X3X3X,X, 1.G.1X1X<XF.F.8.0 D E./.].^.!.!.R.R.R.R.R.R.W ; %.3X3X3X3X3X3X3X3X3X3X3X3X3X3X3X",
"3X3X3X3X3X3X3X3X3X3X3X3X3X3X3X3X3X3X3X3X3X3X,X, 1.D.1X<XF.8.8.6.8 D R.^.^.^.!.R.R.R.Q.R.Y.W W ; %.3X3X3X3X3X3X3X3X3X3X3X3X3X3X3X",
"3X3X3X3X3X3X3X3X3X3X3X3X3X3X3X3X3X3X3X3X3X;X' Y e 6.N.m.8.7.1.0 o D R.^.Q.R.R.R.R.R.Q.R.Y.W W ; %.3X3X3X3X3X3X3X3X3X3X3X3X3X3X3X",
"3X3X3X3X3X3X3X3X3X3X3X3X3X3X3X3X3X3X3X3X3X=XX E./ y q q q q 8 o X D R.^.Q.R.R.R.R.Q.Q.Y.W W W ; %.3X3X3X3X3X3X3X3X3X3X3X3X3X3X3X",
"3X3X3X3X3X3X3X3X3X3X3X3X3X3X3X3X3X3X3X*Xr.*.K /.[./ > O 1 ; ; O X D R.Q.Q.R.R.R.Q.^.Q.Q S W W ; %.3X3X3X3X3X3X3X3X3X3X3X3X3X3X3X",
"3X3X3X3X3X3X3X3X3X3X3X3X3X3X3X3X3X3X=X#.; A .X.X|.[.K ; Y.W W * X D R.Q.R.R.R.R.Q.^.Q.R O Q W ; %.3X3X3X3X3X3X3X3X3X3X3X3X3X3X3X",
"3X3X3X3X3X3X3X3X3X3X3X3X3X3X3X3X3X:X{ C !.|.|. X[./.J : R Y.W = X D R.Q.R.R.R.Q.'./.Q.R O Q W ; %.3X3X3X3X3X3X3X3X3X3X3X3X3X3X3X",
"3X3X3X3X3X3X3X3X3X3X3X3X3X3X3X3X3X_ D Y.Q.[.[.[./.R.Y.G = R.Q.W ; D R.Q.R.R.Q.]./.E.R.R O Q Y.1 %.3X3X3X3X3X3X3X3X3X3X3X3X3X3X3X",
"3X3X3X3X3X3X3X3X3X3X3X3X3X3X3X3X3X_ D R.Q.^.^.E.R.R.R.G = R.].Y.; D R.Q.R.Q.Q.^.Q.R.R.R O Q R.1 %.3X3X3X3X3X3X3X3X3X3X3X3X3X3X3X",
"3X3X3X3X3X3X3X3X3X3X3X3X3X3X3X3X .K E R.^.^.Q.R.R.R.R.G = R.].Y.; D R.R.R.R.R.R.R.R.U 1 P Y.R.L A =.3X3X3X3X3X3X3X3X3X3X3X3X3X3X",
"3X3X3X3X3X3X3X3X3X3X3X3X3X3X3X3X4 P R.Q.^.^.!.R.Y.Y.R.G * Y./.~.2 D R.R.R.R.R.R.R.Y.F = Q.R.R.Y.B [ 3X3X3X3X3X3X3X3X3X3X3X3X3X3X",
"3X3X3X3X3X3X3X3X3X3X3X3X3X-X=.=.A T././.^.Q.Q.R.R.R.R.U N C Q.]./ U R.R.R.R.R.R.R.U C G /.Q.R.R.C [ 3X3X3X3X3X3X3X3X3X3X3X3X3X3X",
"3X3X3X3X3X3X3X3X3X3X3X3X-X*.; ; T.[.[.'.^.Q.R.R.R.R.R.Y.L O E._./.Q.R.R.R.R.R.R.Y.C 2 /.[./.Q.R.G ) $X3X3X3X3X3X3X3X3X3X3X3X3X3X",
"3X3X3X3X3X3X3X3X3X3X3X3X@X= R.E.}..X|.].^.Q.R.R.R.R.R.R.R = U R././.^.Q.R.R.Y.E L Z ^ .X|.[./.Q.Y.S t 3X3X3X3X3X3X3X3X3X3X3X3X3X",
"3X3X3X3X3X3X3X3X3X3X3X3X@X; R.|.|.|.|.|.].^.^.R.R.R.R.R.R.Q O L Y.R.Q.Q.Q.Y.T ; O / +XOX.X.X[./.Y.S t ,X,X3X3X3X3X3X3X3X3X3X3X3X",
"3X3X3X3X3X3X3X3X3X3X3X3X,X#X* W R.'.[.[.].].].^.Q.Q.R.R.R.Q O O F W W W L O O `.XXoX+XOX.X.X[./.R.Q F 4 ,X3X3X3X3X3X3X3X3X3X3X3X",
"3X3X3X3X3X3X3X3X3X3X3X3X3X:X#X= = P Y.Y.R./.].].]./.Q.Q.Q.Q.( U 1 * * * ; W.[.oX+X+X+XOX|.(.Q.R.Y.W T F r -X3X3X3X3X3X3X3X3X3X3X",
"3X3X3X3X3X3X3X3X3X3X3X3X3X3X,X@X, * ; ; C Y.R.R.R.Y.Y.Y.R.R.R.R.U P I Y ).|.OX+X+X+XOX.X|.^.Y.W W F ; 2 r.:X3X3X3X3X3X3X3X3X3X3X",
"3X3X3X3X3X3X3X3X3X3X3X3X3X3X3X3X=.%.%.) O B B B B B B B Z Z Z Z Z D H J / / / O.O.O./ / / H B B B ~ %.=.,X3X3X3X3X3X3X3X3X3X3X3X",
"3X3X3X3X3X3X3X3X3X3X3X3X3X3X3X3X3X3X3X$X[ [ [ [ [ [ [ [ [ [ [ [ [ [ [ [ [ [ [ [ [ [ [ [ [ [ [ [ [ r.3X3X3X3X3X3X3X3X3X3X3X3X3X3X",
"3X3X3X3X3X3X3X3X3X3X3X3X3X3X3X3X3X3X3X3X3X3X3X3X3X3X3X3X3X3X3X3X3X3X3X3X3X3X3X3X3X3X3X3X3X3X3X3X3X3X3X3X3X3X3X3X3X3X3X3X3X3X3X3X",
"3X3X3X3X3X3X3X3X3X3X3X3X3X3X3X3X3X3X3X3X3X3X3X3X3X3X3X3X3X3X3X3X3X3X3X3X3X3X3X3X3X3X3X3X3X3X3X3X3X3X3X3X3X3X3X3X3X3X3X3X3X3X3X3X",
"3X3X3X3X3X3X3X3X3X3X3X3X3X3X3X3X3X3X3X3X3X3X3X3X3X3X3X3X3X3X3X3X3X3X3X3X3X3X3X3X3X3X3X3X3X3X3X3X3X3X3X3X3X3X3X3X3X3X3X3X3X3X3X3X",
"3X3X3X3X3X3X3X3X3X3X3X3X3X3X3X3X3X3X3X3X3X3X3X3X3X3X3X3X3X3X3X3X3X3X3X3X3X3X3X3X3X3X3X3X3X3X3X3X3X3X3X3X3X3X3X3X3X3X3X3X3X3X3X3X"
};
