/* XPM */
static char *_335f01b1a9741769a484a96deff483bhdVKE3KvlbAwEw5F[] = {
/* columns rows colors chars-per-pixel */
"64 64 20 1 ",
"  c gray10",
". c #1E1E1E",
"X c #232323",
"o c #272727",
"O c gray17",
"+ c #2F2F2F",
"@ c gray20",
"# c gray21",
"$ c #393939",
"% c #3E3E3E",
"& c gray25",
"* c gray28",
"= c gray29",
"- c #4C4C4C",
"; c #515151",
": c gray33",
"> c gray35",
", c #5F5F5F",
"< c #606060",
"1 c #656565",
/* pixels */
"                                                                ",
"                                                                ",
"1111111<@@@+  @@@@@@@$111111111111111,  @$111111111111111,@@@@@+",
"1111111<@@@+  @@@@@@@$111111111111111<  @$111111111111111<@@@@@+",
"1111111<@@@+  @@@@@@@$111111111111111<  @$111111111111111<@@@@@+",
"1111111<@@@+  @@@@@@@$111111111111111<  @$111111111111111<@@@@@+",
"=======*@@@+  @@@@@@@#===============*  @#================@@@@@+",
"@@@@@@@@@@@+  @@@@@@@@@@@@@@@@@@@@@@@@  @@@@@@@@@@@@@@@@@@@@@@@+",
"@@@@@@@@@@@+  @@@@@@@@@@@@@@@@@@@@@@@@  @@@@@@@@@@@@@@@@@@@@@@@+",
"@@@@@@@@@@@+  @@@@@@@@@@@@@@@@@@@@@@@@  @@@@@@@@@@@@@@@@@@@@@@@+",
"@@@@@@@@@@@+  @@@@@@@@@@@@@@@@@@@@@@@@  @@@@@@@@@@@@@@@@@@@@@@@+",
"+++++++++++O  ++++++++++++++++++++++++  +++++++++++++++++++++++O",
"                                                                ",
"  ....OOOOOOOOOOOOOOOO....  ........OOOOOOOOOOOOOOOO  ..OOOOOOOO",
"  @@@$111111111111111<@@@+  @@@@@@@$111111111111111<  @$11111111",
"  @@@$111111111111111<@@@+  @@@@@@@$111111111111111<  @$11111111",
"  @@@$111111111111111<@@@+  @@@@@@@$111111111111111<  @$11111111",
"  @@@$111111111111111<@@@+  @@@@@@@$111111111111111<  @$11111111",
"  @@@#&&&&&&&&&&&&&&&%@@@+  @@@@@@@#&&&&&&&&&&&&&&&%  @#&&&&&&&&",
"  @@@@@@@@@@@@@@@@@@@@@@@+  @@@@@@@@@@@@@@@@@@@@@@@@  @@@@@@@@@@",
"  @@@@@@@@@@@@@@@@@@@@@@@+  @@@@@@@@@@@@@@@@@@@@@@@@  @@@@@@@@@@",
"  @@@@@@@@@@@@@@@@@@@@@@@+  @@@@@@@@@@@@@@@@@@@@@@@@  @@@@@@@@@@",
"  @@@@@@@@@@@@@@@@@@@@@@@+  @@@@@@@@@@@@@@@@@@@@@@@@  @@@@@@@@@@",
"  OOOOOOOOOOOOOOOOOOOOOOOo  OOOOOOOOOOOOOOOOOOOOOOOO  OOOOOOOOOO",
"                                                                ",
"%%%%%%%%%$XX .%%%%%%%%%%%%%%%$XXXXXXXX  XXXo%%%%%%%%%%%%%%%$XXXX",
"111111111<@+ o111111111111111<@@@@@@@+  @@@$111111111111111<@@@+",
"111111111<@+ o111111111111111<@@@@@@@+  @@@$111111111111111<@@@+",
"111111111<@+ o111111111111111<@@@@@@@+  @@@$111111111111111<@@@+",
"111111111<@+ o111111111111111<@@@@@@@+  @@@$111111111111111<@@@+",
"##########@+ .################@@@@@@@+  @@@@################@@@+",
"@@@@@@@@@@@+ .@@@@@@@@@@@@@@@@@@@@@@@+  @@@@@@@@@@@@@@@@@@@@@@@+",
"@@@@@@@@@@@+ .@@@@@@@@@@@@@@@@@@@@@@@+  @@@@@@@@@@@@@@@@@@@@@@@+",
"@@@@@@@@@@@+ .@@@@@@@@@@@@@@@@@@@@@@@+  @@@@@@@@@@@@@@@@@@@@@@@+",
"@@@@@@@@@@@+ .@@@@@@@@@@@@@@@@@@@@@@@+  @@@@@@@@@@@@@@@@@@@@@@@+",
"oooooooooooX .oooooooooooooooooooooooX  oooooooooooXoooooooooooX",
"                                                                ",
"  OOOOOO---------------*Oo X---------------=OOOOOOOo  OOO+------",
"  @@@@@$111111111111111<@+ o111111111111111<@@@@@@@+  @@@$111111",
"  @@@@@$111111111111111<@+ o111111111111111<@@@@@@@+  @@@$111111",
"  @@@@@$111111111111111<@+ o111111111111111<@@@@@@@+  @@@$111111",
"  @@@@@$,,,,,,,,,,,,,,,>@+ o,,,,,,,,,,,,,,,>@@@@@@@O  @@@$,,,,,,",
"  @@@@@@@@@@@@@@@@@@@@@@@+ .@@@@@@@@@@@@@@@@@@@@@@@+  @@@@@@@@@@",
"  @@@@@@@@@@@@@@@@@@@@@@@+ .@@@@@@@@@@@@@@@@@@@@@@@+  @@@@@@@@@@",
"  @@@@@@@@@@@@@@@@@@@@@@@+ .@@@@@@@@@@@@@@@@@@@@@@@+  @@@@@@@@@@",
"  @@@@@@@@@@@@@@@@@@@@@@@+ .@@@@@@@@@@@@@@@@@@@@@@@+  @@@@@@@@@@",
"  @@@@@@@@@@@@@@@@@@@@@@@+ .@@@@@@@@@@@@@@@@@@@@@@@+  @@@@@@@@@@",
"  ........................  ........................  ..........",
"                                                                ",
">>>>>>>>>:+O X>>>>>>>>>>>>>>>:+++++++O  +++@>>>>>>>>>>>>>>>:+++O",
"111111111<@+ o111111111111111<@@@@@@@+  @@@$111111111111111<@@@+",
"111111111<@+ o111111111111111<@@@@@@@+  @@@$111111111111111<@@@+",
"111111111<@+ o111111111111111<@@@@@@@+  @@@$111111111111111<@@@+",
":::::::::;@+ o:::::::::::::::;@@@@@@@+  @@@#:::::::::::::::;@@@+",
"@@@@@@@@@@@+ .@@@@@@@@@@@@@@@@@@@@@@@+  @@@@@@@@@@@@@@@@@@@@@@@+",
"@@@@@@@@@@@+ .@@@@@@@@@@@@@@@@@@@@@@@+  @@@@@@@@@@@@@@@@@@@@@@@+",
"@@@@@@@@@@@+ .@@@@@@@@@@@@@@@@@@@@@@@+  @@@@@@@@@@@@@@@@@@@@@@@+",
"@@@@@@@@@@@+ .@@@@@@@@@@@@@@@@@@@@@@@+  @@@@@@@@@@@@@@@@@@@@@@@+",
"@@@@@@@@@@@+ .@@@@@@@@@@@@@@@@@@@@@@@+  @@@@@@@@@@@@@@@@@@@@@@@+",
"                                                                ",
"                                                                ",
"  @@@@@@@@@@@@@@@@@@@@@@@+  @@@@@@@@@@@@@@@@@@@@@@@@  @@@@@@@@@@",
"  @@@@@@@@@@@@@@@@@@@@@@@+  @@@@@@@@@@@@@@@@@@@@@@@@  @@@@@@@@@@",
"  @@@@@@@@@@@@@@@@@@@@@@@+  @@@@@@@@@@@@@@@@@@@@@@@@  @@@@@@@@@@"
};
