/* XPM */
static char *_74e9ac3170d4c64cb980ee27aaeb05aTjZxH2Hpc7t4r4o5[] = {
/* columns rows colors chars-per-pixel */
"64 64 206 2 ",
"   c #23130F",
".  c #2B1B0D",
"X  c #201010",
"o  c #291614",
"O  c #2D1C15",
"+  c #21141B",
"@  c #2B1D1C",
"#  c #321B14",
"$  c #32220C",
"%  c #3C2C0A",
"&  c #392517",
"*  c #211623",
"=  c #231926",
"-  c #231A2C",
";  c #231B32",
":  c #231E3E",
">  c #2F2121",
",  c #27202B",
"<  c #362923",
"1  c #362929",
"2  c #392C2B",
"3  c #282338",
"4  c #352B36",
"5  c #3D3232",
"6  c #443409",
"7  c #47320F",
"8  c #4A3A09",
"9  c #46281C",
"0  c #532E1D",
"q  c #573618",
"w  c #6E3B1E",
"e  c #492D21",
"r  c #4A3826",
"t  c #563524",
"y  c #433739",
"u  c #603724",
"i  c #544409",
"p  c #5B4A09",
"a  c #5E4A16",
"s  c #645309",
"d  c #6C5C08",
"f  c #624914",
"g  c #6B5510",
"h  c #735B17",
"j  c #7B660C",
"k  c #796219",
"l  c #4F412A",
"z  c #5F4E2A",
"x  c #4B433B",
"c  c #534738",
"v  c #7B4323",
"b  c #6D5324",
"n  c #784D35",
"m  c #7A632A",
"M  c #231F42",
"N  c #252344",
"B  c #292741",
"V  c #24224B",
"C  c #2A2B4B",
"Z  c #302E48",
"A  c #3A3648",
"S  c #252553",
"D  c #2A2B53",
"F  c #272A5B",
"G  c #2D335A",
"H  c #323956",
"J  c #262A64",
"K  c #272C6D",
"L  c #2D3566",
"P  c #2B346C",
"I  c #313B68",
"U  c #272F74",
"Y  c #2A3374",
"T  c #2E3A77",
"R  c #29337B",
"E  c #313F78",
"W  c #37425E",
"Q  c #3B4966",
"!  c #394974",
"~  c #33427B",
"^  c #4C4040",
"/  c #4B4249",
"(  c #544949",
")  c #585345",
"_  c #534C56",
"`  c #6C5D46",
"'  c #655B55",
"]  c #635959",
"[  c #695F5E",
"{  c #6E6A57",
"}  c #736D5A",
"|  c #5F5862",
" . c #6B6363",
".. c #746B60",
"X. c #746C6C",
"o. c #7A7373",
"O. c #7E7878",
"+. c #826E0C",
"@. c #87730D",
"#. c #836A14",
"$. c #8E7613",
"%. c #987E14",
"&. c #A17B1E",
"*. c #864B26",
"=. c #9B5528",
"-. c #835A39",
";. c #A25928",
":. c #AB5E2A",
">. c #947929",
",. c #876F38",
"<. c #B4622B",
"1. c #BA672B",
"2. c #AA6635",
"3. c #AD7037",
"4. c #C76B2E",
"5. c #CD7635",
"6. c #D17434",
"7. c #D17B3C",
"8. c #896947",
"9. c #976A48",
"0. c #857F5B",
"q. c #B17645",
"w. c #AC7D56",
"e. c #827C7C",
"r. c #9B8116",
"t. c #A98B18",
"y. c #B1921E",
"u. c #9B8027",
"i. c #AC8D2F",
"p. c #B59829",
"a. c #A58637",
"s. c #BB9B38",
"d. c #BFA031",
"f. c #C6A638",
"g. c #99805A",
"h. c #AD8851",
"j. c #BFA142",
"k. c #898766",
"l. c #A6A679",
"z. c #BDA171",
"x. c #CB864C",
"c. c #D78748",
"v. c #CE8C51",
"b. c #DB9354",
"n. c #DD9C5D",
"m. c #CCAD4A",
"M. c #D2B349",
"N. c #D6B653",
"B. c #DDBD54",
"V. c #DDAE69",
"C. c #E0A262",
"Z. c #E5AF6F",
"A. c #E1BF68",
"S. c #E8B878",
"D. c #E3C35D",
"F. c #EACA65",
"G. c #E9CA6A",
"H. c #F0D06E",
"J. c #F4D472",
"K. c #F8D878",
"L. c #2E3C83",
"P. c #303F85",
"I. c #344687",
"U. c #31428A",
"Y. c #3F5484",
"T. c #364C94",
"R. c #394E93",
"E. c #3A5296",
"W. c #395299",
"Q. c #3E599D",
"!. c #3F5BA1",
"~. c #415B99",
"^. c #45619D",
"/. c #415DA1",
"(. c #4462A4",
"). c #4565A9",
"_. c #4769AB",
"`. c #496AAA",
"'. c #4B6EB0",
"]. c #4D74B4",
"[. c #5177B7",
"{. c #5077BA",
"}. c #527ABB",
"|. c #5681C1",
" X c #5986C6",
".X c #5A87C8",
"XX c #5D8CCC",
"oX c #6090D0",
"OX c #8A8484",
"+X c #8E8989",
"@X c #938E8E",
"#X c #979393",
"$X c #989494",
"%X c #9D9A9A",
"&X c #B1B180",
"*X c #A5A2A2",
"=X c #A9A7A7",
"-X c #ADABAB",
";X c #B1AFAF",
":X c #B4B3B3",
">X c #B8B7B7",
",X c #BBBBBB",
"<X c #CBCB8B",
"1X c #DFDF95",
"2X c #ECC788",
"3X c #C0C0C0",
/* pixels */
"3X3X3X3X3X3X3X3X3X3X3X3X3X3X3X3X3X3X3X3X3X3X3X3X3X3X3X3X3X3X3X3X3X3X3X3X3X3X3X3X3X3X3X3X3X3X3X3X3X3X3X3X3X3X3X3X3X3X3X3X3X3X3X3X",
"3X3X3X3X3X3X3X3X3X3X3X3X3X3X3X3X3X3X3X3X3X3X3X3X3X3X3X3X3X3X3X3X3X3X3X3X3X3X3X3X3X3X3X3X3X3X3X3X3X3X3X3X3X3X3X3X3X3X3X3X3X3X3X3X",
"3X3X3X3X3X3X3X3X3X3X3X3X3X3X3X3X3X3X3X3X3X3X3X3X3X3X3X3X3X3X3X3X3X3X3X3X3X3X3X3X3X3X3X3X3X3X3X3X3X3X3X3X3X3X3X3X3X3X3X3X3X3X3X3X",
"3X3X3X3X3X3X3X3X3X3X3X3X3X3X3X3X3X3X3X3X3X3X3X3X3X3X3X3X3X3X3X3X3X3X3X3X3X3X3X3X3X3X3X3X3X3X3X3X3X3X3X3X3X3X3X3X3X3X3X3X3X3X3X3X",
"3X3X3X3X3X3X3X3X3X3X3X3X3X3X3X3X3X3X3X3X3X3X3X3X3X3X3X3X3X3X3X3X3X3X3X3X3X3Xe.5 5 5 5 5 5 e.3X3X3X3X3X3X3X3X3X3X3X3X3X3X3X3X3X3X",
"3X3X3X3X3X3X3X3X3X3X3X3X3X3X3X3X3X%X( ( :X3X3X3X3X3X3X3X3X3X3X3X3X3X3X3X .( z k >.a.>.#.h z ( ( ( ( :X3X3X3X3X3X3X3X3X3X3X3X3X3X",
"3X3X3X3X3X3X3X3X3X3X3X3X3X3Xe.[ [ ..8.v [ -X3X3X3X3X3X3X3X3X3X3X3X3X,XX.z h a.N.D.N.b f >.>.h g g i ' =X3X3X3X3X3X3X3X3X3X3X3X3X",
"3X3X3X3X3X3X3X3X3X3X3X>XO.O.r 7 8 b n.4.# { =X3X3X3X3X3X3X3X3X3X3X:XO.a a i.F.K.G.,.n ` m u.t.t.r.+.8 { *X3X3X3X3X3X3X3X3X3X3X3X",
"3X3X3X3X3X3X3X3X3X3X:XOXc o % j %.&.5.1.7 % ..@X@X@X$X,X3X3X3X-X@Xe.9 #.a h.A.A.h.0 C.2X8.f j +.h h s c @X3X3X3X3X3X3X3X3X3X3X3X",
"3X3X3X3X3X3X3X3X3X3X$X& 2Xr 6 s r.d.p.%.%.r.a & & $ & *X=X=X=XX.# 9 9.O h.q.3.,.& 2.2X2XZ.8.q a 1 1 1 %X3X3X3X3X3X3X3X3X3X3X3X3X",
"3X3X3X3X3X3X3X3X3X3X$X& n.2.f s j @.y.f.f.B.B.M.p.t.+.o X X X t 9.9.w.O z.Z.-.X e C.n.7.Z.2Xg.^ 3X3X3X3X3X3X3X3X3X3X3X3X3X3X3X3X",
"3X3X3X3X3X3X3X3X3X3X$X& n.n.t % i s j +.%.y.M.F.H.H.G.A.m.s.t.3.w.w.w.O z.2Xh.v =.5.2.v.S.C.*.^ 3X3X3X3X3X3X3X3X3X3X3X3X3X3X3X3X",
"3X3X3X3X3X3X3X3X3X3X$X# 7.n.3.q % 8 i i s j r.s.B.F.K.K.J.H.B.m.s.i.w.O z.S.v.1.1.:.4.b.b.b.x.9._ 3X3X3X3X3X3X3X3X3X3X3X3X3X3X3X",
"3X3X3X3X3X3X3X3X3X3X$X# <.7.6.w $ 8 6 $ 8 p s $.p.f.B.K.K.K.J.F.B.f.i.O h.S.C.c.5.x.<.7.6.c.b.2.< 3X3X3X3X3X3X3X3X3X3X3X3X3X3X3X",
"3X3X3X3X3X3X3X3X3X3X$Xo *.4.6.=.q % 6 $ $ $ 6 p j $.p.M.B.F.J.K.J.F.f.$ q.S.2XC.b.n.q.c.c.c.3.n X.3X3X3X3X3X3X3X3X3X3X3X3X3X3X3X",
"3X3X3X3X3X3X3X3X3X3X*X( t :.4.6.*.. 8 6 .   $ % 6 p j r.p.f.B.H.K.J.B.& q.S.2XZ.b.C.C.b.v.2.n X.3X3X3X3X3X3X3X3X3X3X3X3X3X3X3X3X",
"3X3X3X3X3X3X3X3X3X3X3X-XX *.1.<.w . 6 8 8 . X X . % 6 d j %.p.m.F.F.j.1 =.n.V.c.c.n.b.6.:.0 ] 3X3X3X3X3X3X3X3X3X3X3X3X3X3X3X3X3X",
"3X3X3X3X3X3X3X3X3X3X3X-X@ u *.0 + + O 6 6 .   X X X   6 6 s +.%.y.i.X E n 1.<.3.n.n.6.4.*.e  .3X3X3X3X3X3X3X3X3X3X3X3X3X3X3X3X3X",
"3X3X3X3X3X3X3X3X3X3X3X,X:X2 o G E.^.Y.  6 6 . X X X       % 8 s @.%.X ~.4 w ;.<.6.6.;.v & X.>X3X3X3X3X3X3X3X3X3X3X3X3X3X3X3X3X3X",
"3X3X3X3X3X3X3X3X3X3X3X3X3X2 G E.(._.(.Y.@ 6 . X X X X X X   . % 8 & J (.~ 4 v 4.4.:.;.9 o.;X3X3X3X3X3X3X3X3X3X3X3X3X3X3X3X3X3X3X",
"3X3X3X3X3X3X3X3X3X3X3X:X( D U./._._._.(.I >   X X X X X X       . * R [.`.~ y v :.=.0 6 c +X3X3X3X3X3X3X3X3X3X3X3X3X3X3X3X3X3X3X",
"3X3X3X3X3X3X3X3X3X3X3X-XX J U.Q.(._.(.Q.U.- 2 < X X X X     X X X * U..X}.E.C # q 0 N & % c +X3X3X3X3X3X3X3X3X3X3X3X3X3X3X3X3X3X",
"3X3X3X3X3X3X3X3X3X3X3X-XX P T.W.Q.~.E.U.S + ) ) @ X X X X @ 2 2 = = W..X}.Q.D X X + R = b m ` e.OX3X3X3X3X3X3X3X3X3X3X3X3X3X3X3X",
"3X3X3X3X3X3X3X3X3X3X:XOX- T T.W.W.T.L.U + X { } 5 X X X X x } { y = W..X|.).L * X + L.: ,.j.>.% < #X>X3X3X3X3X3X3X3X3X3X3X3X3X3X",
"3X3X3X3X3X3X3X3X3X3X$X+ U L.T.W.T.I.T J = X 0.k.5 X X X X { &Xl.) = W..XoX[.R.S X + L.R ; ,.f.%.p O %X>X3X3X3X3X3X3X3X3X3X3X3X3X",
"3X3X3X3X3X3X3X3X3X3X$X+ U L.T.W.T.L X X K = 0.k.5 X X X X k.1X<X{ , [.XXoX[.R.S X + L.R ; p r.t.t.$.O #X3X3X3X3X3X3X3X3X3X3X3X3X",
"3X3X3X3X3X3X3X3X3X3X$X+ U L.T.T.G 3 E ~.T.- ) x X X X X X k.1X<X{ , [.XXoX}.Q.F X + L.L.Y 3 % s +.$.#.r OX3X3X3X3X3X3X3X3X3X3X3X",
"3X3X3X3X3X3X3X3X3X3X$X+ U L.U.D V ~ Q.T.L.- @ @ X X X X X ' l.l.) , [.XXoX|.(.E V + L.T.L.: $ 8 p j j p l e.3X3X3X3X3X3X3X3X3X3X",
"3X3X3X3X3X3X3X3X3X3X$X+ U R L.N C E._.L.R = X X X X X X X < c c 4 G [.|.XX.X`.U.J + L.T.L.J 3 $ $ % p i $  .3X3X3X3X3X3X3X3X3X3X",
"3X3X3X3X3X3X3X3X3X3X$X+ U R L.N C !.].Q.U.V * X X X X X X - N - - L.[.[.XXoX[.E.P + L.T.L.R V   $ $ 6 % c @X3X3X3X3X3X3X3X3X3X3X",
"3X3X3X3X3X3X3X3X3X3X*X/ S U R N C Q.].}.(.U.V * X + ; ; 3 P T.G ; U.[.[. XXX.X'.I.; L.Q.L.R V   % % % x #X3X3X3X3X3X3X3X3X3X3X3X",
"3X3X3X3X3X3X3X3X3X3X3X-XX J R N N I.)..X}.).T.G , B P.R.!._.].Q 3 (.[.].]. XoX}.E.R T.'.I.R V o 5 5 5 %X3X3X3X3X3X3X3X3X3X3X3X3X",
"3X3X3X3X3X3X3X3X3X3X3X-XX J R R V ; U._.XXXX|.]._.`.[.XXoXXX_.G A XX]._.]. XXX.X].W.].[.I.U V ( 3X3X3X3X3X3X3X3X3X3X3X3X3X3X3X3X",
"3X3X3X3X3X3X3X3X3X3X3X-XX J R R V ; R W.].XXXXXXXXXXXXXXoX_.G : I.XX]._.].[. XXX.X].XX}.T.N ] :X3X3X3X3X3X3X3X3X3X3X3X3X3X3X3X3X",
"3X3X3X3X3X3X3X3X3X3X3X-XX J R R K V ; L.W.`. XoXoXoXoXoX|.`.~ Y R.[._._._._.].|.XXXXXX).L.: ] 3X3X3X3X3X3X3X3X3X3X3X3X3X3X3X3X3X",
"3X3X3X3X3X3X3X3X3X3X3X>XOXZ J R R K V ; T E.].|.|.|.}.[.(.Q.U.L.E.`._._._._._.[.oXXX|.E.R : ] 3X3X3X3X3X3X3X3X3X3X3X3X3X3X3X3X3X",
"3X3X3X3X3X3X3X3X3X3X3X3X3X2 S L.L.R K N M I.(.`.'.].`./.W.T.L.L.T./._._._._.`.`.}.|.).U.R : ] 3X3X3X3X3X3X3X3X3X3X3X3X3X3X3X3X3X",
"3X3X3X3X3X3X3X3X3X3X3X3X3X2 S L.L.R R U + P (.].`._.(.Q.W.T.U.U.U.W._._._.(.(.`._.].W.U.R : ] 3X3X3X3X3X3X3X3X3X3X3X3X3X3X3X3X3X",
"3X3X3X3X3X3X3X3X3X3X3X3X3X_ D Y U.L.R U + J `. X[._._._.Q.W.T.U.U.E._._._.Q.Q.(._.].W.U.R : ] 3X3X3X3X3X3X3X3X3X3X3X3X3X3X3X3X3X",
"3X3X3X3X3X3X3X3X3X3X3X3X3X3X^ D U.T.L.Y + J '.oX.X[.[.[.`.Q.W.U.R U.(.(._.Q.W.Q._.(.W.U.R : ] 3X3X3X3X3X3X3X3X3X3X3X3X3X3X3X3X3X",
"3X3X3X3X3X3X3X3X3X3X3X3X3X3X^ V R U.T.L.+ P ].oXoX.X[.[.].].`.R.R U.W.(._.Q.W.Q._.(.W.U.R : ] 3X3X3X3X3X3X3X3X3X3X3X3X3X3X3X3X3X",
"3X3X3X3X3X3X3X3X3X3X3X3X3X3X-X_ V R U.L.+ E {.oXoXoXXX[..XXX[.R.R U.W.(._.Q.W.Q.(.W.U.U.R : ] 3X3X3X3X3X3X3X3X3X3X3X3X3X3X3X3X3X",
"3X3X3X3X3X3X3X3X3X3X3X3X3X3X3X*X| N R L.+ ~ '. XoXoXXX.XXX X].E.L.R U.E.(.Q.W.Q.(.T.U.U.R : ] 3X3X3X3X3X3X3X3X3X3X3X3X3X3X3X3X3X",
"3X3X3X3X3X3X3X3X3X3X3X3X3X3X3X3Xo.; R R + ~ _.}. XoXoXoXoX}.]./.U.R P.T.Q.W.W.Q.(.T.U.L.S = ] 3X3X3X3X3X3X3X3X3X3X3X3X3X3X3X3X3X",
"3X3X3X3X3X3X3X3X3X3X3X3X3X3X3X3X#X_ S U + T (.].}. XXX X X|.}.`.E.R L.U.T.W.W.Q.(.T.U.R ; = / +X3X3X3X3X3X3X3X3X3X3X3X3X3X3X3X3X",
"3X3X3X3X3X3X3X3X3X3X3X3X3X3X3X3X3X%X/ S + P E.`.[.}. X[.[..X|.]./.U.R L.T.W.W.Q.(.T.L.R ; V V ^ 3X3X3X3X3X3X3X3X3X3X3X3X3X3X3X3X",
"3X3X3X3X3X3X3X3X3X3X3X3X3X3X3X3X3X3X=X2 X P T.(.].[.[.[.[..X|.].(.T.R L.T.T.W.Q.~.L.R U ; V V ^ 3X3X3X3X3X3X3X3X3X3X3X3X3X3X3X3X",
"3X3X3X3X3X3X3X3X3X3X3X3X3X3X3X3X3X3X3X>X> J L.E.`.].].].[..X|.].(.T.U.R L.T.Q./.T.L.R U ; V V ^ 3X3X3X3X3X3X3X3X3X3X3X3X3X3X3X3X",
"3X3X3X3X3X3X3X3X3X3X3X3X3X3X3X3X3X3X3X>X> J L.T.(.]._.[..XXX|.].(.T.T.R R L.U.U.L.R R - S U V ^ 3X3X3X3X3X3X3X3X3X3X3X3X3X3X3X3X",
"3X3X3X3X3X3X3X3X3X3X3X3X3X3X3X3X3X3X3X,X%XA L T.Q._._.].XXoX|.].(.W.T.L.R R R R R U - S R R V ^ 3X3X3X3X3X3X3X3X3X3X3X3X3X3X3X3X",
"3X3X3X3X3X3X3X3X3X3X3X3X3X3X3X3X3X3X3X3X3Xy G R.(._.`. XXXoX|.].(.W.T.T.L.R R J ; ; S R L.R V ^ 3X3X3X3X3X3X3X3X3X3X3X3X3X3X3X3X",
"3X3X3X3X3X3X3X3X3X3X3X3X3X3X3X3X3X3X3X3X3Xy L Q._._.].XXoX X}.].(.W.W.W.T.L.R J N D R L.U.R V ^ 3X3X3X3X3X3X3X3X3X3X3X3X3X3X3X3X",
"3X3X3X3X3X3X3X3X3X3X3X3X3X3X3X3X3X3X3X3X3Xy L ~._.].|.XXoX}.[.].(.W.W.W.W.U.L.R R U.U.P.U.R F A +X3X3X3X3X3X3X3X3X3X3X3X3X3X3X3X",
"3X3X3X3X3X3X3X3X3X3X3X3X3X3X3X3X3X3X3X3X3Xy I /.`.}.oXoXoX|.[.].(.W.T.T.T.T.U.U.U.U.P.U.P.R R S 1 3X3X3X3X3X3X3X3X3X3X3X3X3X3X3X",
"3X3X3X3X3X3X3X3X3X3X3X3X3X3X3X3X3X3X3X,X:Xy ! _.`.}.oXoXoX}.[.].(.W.T.U.T.T.T.U.U.U.U.U.P.L.R F 1 ;X,X3X3X3X3X3X3X3X3X3X3X3X3X3X",
"3X3X3X3X3X3X3X3X3X3X3X3X3X3X3X3X3X3X3X>X< P Q.`.].}.oXoXoX}.[.].(.W.T.U.U.T.T.T.U.U.U.U.U.L.L.U J o -X3X3X3X3X3X3X3X3X3X3X3X3X3X",
"3X3X3X3X3X3X3X3X3X3X3X3X3X3X3X3X3X3X3X>X> P Q.].}.XXoXoXoX}.[.].].(.T.U.U.T.W.T.T.T.T.T.U.U.L.R U J 4 %X3X3X3X3X3X3X3X3X3X3X3X3X",
"3X3X3X3X3X3X3X3X3X3X3X3X3X3X3X3X3X3X-X( G I./.].|.oXoXoXoX}.[.[.].(.T.U.U.T.W.E.(.(.(.W.T.L.R J ; ; e.:X3X3X3X3X3X3X3X3X3X3X3X3X",
"3X3X3X3X3X3X3X3X3X3X3X3X3X3X3X3X3X3X:XX.C C H H W Q Q Q Q W H H H H C N N C C D H H H C C N : A o.o.:X3X3X3X3X3X3X3X3X3X3X3X3X3X",
"3X3X3X3X3X3X3X3X3X3X3X3X3X3X3X3X3X3X3X,X .] ] ] ] ] ] ] ] ] ] ] ] ] ] ] ] ] ] ] ] ] ] ] ] ] ] O.3X3X3X3X3X3X3X3X3X3X3X3X3X3X3X3X",
"3X3X3X3X3X3X3X3X3X3X3X3X3X3X3X3X3X3X3X3X3X3X3X3X3X3X3X3X3X3X3X3X3X3X3X3X3X3X3X3X3X3X3X3X3X3X3X3X3X3X3X3X3X3X3X3X3X3X3X3X3X3X3X3X",
"3X3X3X3X3X3X3X3X3X3X3X3X3X3X3X3X3X3X3X3X3X3X3X3X3X3X3X3X3X3X3X3X3X3X3X3X3X3X3X3X3X3X3X3X3X3X3X3X3X3X3X3X3X3X3X3X3X3X3X3X3X3X3X3X",
"3X3X3X3X3X3X3X3X3X3X3X3X3X3X3X3X3X3X3X3X3X3X3X3X3X3X3X3X3X3X3X3X3X3X3X3X3X3X3X3X3X3X3X3X3X3X3X3X3X3X3X3X3X3X3X3X3X3X3X3X3X3X3X3X",
"3X3X3X3X3X3X3X3X3X3X3X3X3X3X3X3X3X3X3X3X3X3X3X3X3X3X3X3X3X3X3X3X3X3X3X3X3X3X3X3X3X3X3X3X3X3X3X3X3X3X3X3X3X3X3X3X3X3X3X3X3X3X3X3X"
};
