/* XPM */
static char *_c61f0c9f6b443368642c6b0e177b986xjKAywS8SifjXon3[] = {
/* columns rows colors chars-per-pixel */
"64 64 215 2 ",
"   c #23130F",
".  c #2B1B0D",
"X  c #201011",
"o  c #281815",
"O  c #21151D",
"+  c #2D1F1E",
"@  c #301E11",
"#  c #33230C",
"$  c #3B2B0B",
"%  c #2F221A",
"&  c #392416",
"*  c #211724",
"=  c #231924",
"-  c #211729",
";  c #231A2B",
":  c #231B33",
">  c #231E3C",
",  c #2F272F",
"<  c #332727",
"1  c #382B2B",
"2  c #3E342E",
"3  c #26223C",
"4  c #2A2438",
"5  c #43330B",
"6  c #4C3B0B",
"7  c #503E0D",
"8  c #402D11",
"9  c #4C2818",
"0  c #562F1B",
"q  c #473514",
"w  c #6F3C1F",
"e  c #472A23",
"r  c #522E24",
"t  c #483525",
"y  c #583422",
"u  c #413434",
"i  c #473B37",
"p  c #53430A",
"a  c #5B4B09",
"s  c #574517",
"d  c #65530B",
"f  c #6C5A0A",
"g  c #6B5611",
"h  c #6B5516",
"j  c #745C18",
"k  c #78660A",
"l  c #7A6416",
"z  c #514220",
"x  c #4D4134",
"c  c #544A39",
"v  c #794529",
"b  c #685326",
"n  c #63473A",
"m  c #724F30",
"M  c #7A4A36",
"N  c #796234",
"B  c #241F41",
"V  c #252144",
"C  c #2A2847",
"Z  c #25244C",
"A  c #28294D",
"S  c #312F49",
"D  c #373146",
"F  c #252554",
"G  c #2B2C54",
"H  c #252659",
"J  c #292D5B",
"K  c #2D3255",
"L  c #2C325C",
"P  c #353A59",
"I  c #262861",
"U  c #272D6E",
"Y  c #282E6B",
"T  c #2D3464",
"R  c #2F3967",
"E  c #2B336A",
"W  c #303B6B",
"Q  c #272E74",
"!  c #2A3474",
"~  c #2E3A74",
"^  c #29337B",
"/  c #2E3B7C",
"(  c #313F74",
")  c #3A445E",
"_  c #39476B",
"`  c #34437A",
"'  c #4E4343",
"]  c #564B4A",
"[  c #564C4C",
"{  c #5A5147",
"}  c #494355",
"|  c #5A5050",
" . c #5E5E54",
".. c #645747",
"X. c #7C5E41",
"o. c #655853",
"O. c #655C5C",
"+. c #6B6757",
"@. c #72725D",
"#. c #645D62",
"$. c #6C6363",
"%. c #706660",
"&. c #726B6B",
"*. c #7C7A60",
"=. c #7D7676",
"-. c #7E7879",
";. c #826D0D",
":. c #8B740E",
">. c #8E7412",
",. c #8A7215",
"<. c #937B13",
"1. c #8E532B",
"2. c #965328",
"3. c #88593B",
"4. c #A75B29",
"5. c #8E712F",
"6. c #977A25",
"7. c #B86F39",
"8. c #C96F32",
"9. c #D17738",
"0. c #885840",
"q. c #8D6843",
"w. c #986945",
"e. c #A77645",
"r. c #B87A47",
"t. c #A87853",
"y. c #817A77",
"u. c #837D7C",
"i. c #C27F48",
"p. c #9C8218",
"a. c #A48817",
"s. c #AD8D17",
"d. c #AE901E",
"f. c #A48B23",
"g. c #AC9127",
"h. c #B69829",
"j. c #BD9E2D",
"k. c #AE8F36",
"l. c #BFA02F",
"z. c #C0A02D",
"x. c #C6A739",
"c. c #B38E4A",
"v. c #B68D4A",
"b. c #B48654",
"n. c #B08058",
"m. c #BE9457",
"M. c #8C8B6A",
"N. c #B69B6D",
"B. c #AAA878",
"V. c #B2B17E",
"C. c #CC8549",
"Z. c #CB8D53",
"A. c #C29859",
"S. c #DA9859",
"D. c #CCAD43",
"F. c #D1B145",
"G. c #D5B549",
"H. c #D1AD53",
"J. c #DEBE55",
"K. c #DBA366",
"L. c #E0A161",
"P. c #E3AA6A",
"I. c #E7B777",
"U. c #E3C35C",
"Y. c #E6C661",
"T. c #E9C964",
"R. c #EECE6B",
"E. c #F0D06E",
"W. c #F6D675",
"Q. c #F8D878",
"!. c #2E3C84",
"~. c #303E85",
"^. c #334383",
"/. c #31428A",
"(. c #374B8A",
"). c #3D538C",
"_. c #354B93",
"`. c #394F95",
"'. c #395196",
"]. c #395299",
"[. c #3E599E",
"{. c #3E5BA0",
"}. c #425C9D",
"|. c #415EA1",
" X c #4463A5",
".X c #4665A8",
"XX c #4769AB",
"oX c #496AAA",
"OX c #4A6FB0",
"+X c #4E73B3",
"@X c #5076B6",
"#X c #5076B8",
"$X c #527BBB",
"%X c #837E82",
"&X c #5681C2",
"*X c #5985C5",
"=X c #5D8BCB",
"-X c #6090D0",
";X c #888383",
":X c #8B8686",
">X c #938E8E",
",X c #9B9898",
"<X c #A19E9E",
"1X c #B7B783",
"2X c #A4A1A1",
"3X c #ACABAB",
"4X c #B0AFAF",
"5X c #B4B3B3",
"6X c #B8B7B7",
"7X c #BBBBBB",
"8X c #C1C187",
"9X c #ECC788",
"0X c #F0D090",
"qX c #EAEA9A",
"wX c #C0C0C0",
/* pixels */
"wXwXwXwXwXwXwXwXwXwXwXwXwXwXwXwXwXwXwXwXwXwXwXwXwXwXwXwXwXwXwXwXwXwXwXwXwXwXwXwXwXwXwXwXwXwXwXwXwXwXwXwXwXwXwXwXwXwXwXwXwXwXwXwX",
"wXwXwXwXwXwXwXwXwXwXwXwXwXwXwXwXwXwXwXwXwXwXwXwXwXwXwXwXwXwXwXwXwXwXwXwXwXwXwXwXwXwXwXwXwXwXwXwXwXwXwXwXwXwXwXwXwXwXwXwXwXwXwXwX",
"wXwXwXwXwXwXwXwXwXwXwXwXwXwXwXwXwXwXwXwXwXwXwXwXwXwXwXwXwXwXwXwXwXwXwXwXwXwXwXwXwXwXwXwXwXwXwXwXwXwXwXwXwXwXwXwXwXwXwXwXwXwXwXwX",
"wXwXwXwXwXwXwXwXwXwXwXwXwXwXwXwXwXwXwXwXwXwXwXwXwXwXwXwXwXwXwXwXwXwXwXwXwXwXwXwXwXwXwXwXwXwXwXwXwXwXwXwXwXwXwXwXwXwXwXwXwXwXwXwX",
"wXwXwXwXwXwXwXwXwXwXwXwXwXwXwXwXwXwXwXwXwXwXwXwXwXwXwXwXwXwXwXwXwXwXwXwXwXwXwXwX$.i i i i i 5XwXwXwXwXwXwXwXwXwXwXwXwXwXwXwXwXwX",
"wXwXwXwXwXwXwXwXwXwXwXwXwXwXwXwXwXwXwXwXwXwXwXwXwXwXwXwXwXwXwXwXwXwXwXwXwX5X| | b l 5.5.5.p { | ,XwXwXwXwXwXwXwXwXwXwXwXwXwXwXwX",
"wXwXwXwXwXwXwXwXwXwXwXwXwXwXwXwXwXwXwXwXwXwXwXwXwXwXwXwXwXwXwXwXwXwXwX<X&.%.h N k.D.F.x.f.p.h p ..&.:XwXwXwXwXwXwXwXwXwXwXwXwXwX",
"wXwXwXwXwXwXwXwXwXwXwXwXwXwXwXwXwXwXwXwXwXwXwXwXwXwXwXwXwXwXwXwXwX,X;X+.q b x.U.R.J.x.g.k g.a.<.d 5 c >XwXwXwXwXwXwXwXwXwXwXwXwX",
"wXwXwXwXwXwXwXwXwXwXwXwXwXwXwXwXwXwXwXwXwXwXwXwXwXwXwXwXwXwXwXwX2X{ $ h h.Y.W.W.U.z.g.6.6 d k ,.l f s o.wXwXwXwXwXwXwXwXwXwXwXwX",
"wXwXwXwXwXwXwXwXwXwXwXwXwXwXwXwXwXwXwXwXwXwXwXwXwXwXwXwXwX7X5X5Xi j h.G.Y.W.W.U.J.h.;.a X + + + + + o.wXwXwXwXwXwXwXwXwXwXwXwXwX",
"wXwXwXwXwXwXwXwXwXwXwXwXwXwXwXwXwXwXwXwXwXwXwXwXwXwXwXwXwX2Xo o ,.x.T.W.W.W.U.U.D.p.f 6 1 6X6X6X6X6X7XwXwXwXwXwXwXwXwXwXwXwXwXwX",
"wXwXwXwXwXwXwXwXwXwXwXwXwXwXwXwXwXwXwXwXwXwXwXwXwXwXwXu.2 t l c.Y.E.W.Q.W.U.U.D.h.<.a x 2XwXwXwXwXwXwXwXwXwXwXwXwXwXwXwXwXwXwXwX",
"wXwXwXwXwXwXwXwXwXwXwXwXwXwXwXwXwXwXwXwXwXwXwXwXwX&.] n M q.e.m.A.H.J.Y.U.J.F.h.a.;.6 ' wXwXwXwXwXwXwXwXwXwXwXwXwXwXwXwXwXwXwXwX",
"wXwXwXwXwXwXwXwXwXwXwXwXwXwXwXwXwXwXu.O.O.O.O.O.O.n n 3.t.n.n.n.n.b.c.v.v.z.h.a.:.f 5 ' wXwXwXwXwXwXwXwXwXwXwXwXwXwXwXwXwXwXwXwX",
"wXwXwXwXwXwXwXwXwXwXwXwX<X=.=.=.=.=.c 5 6 s b m N b.m.A.A.v.k.n.n.e.w.w.w.6.6.:.k a x -.wXwXwXwXwXwXwXwXwXwXwXwXwXwXwXwXwXwXwXwX",
"wXwXwXwXwXwXwXwXwXwX,X>Xo.# # 8 q q l 6.g.x.G.Y.W.Q.Q.E.U.F.x.m.v.e.w.w.w.0.0.j h 8 O.wXwXwXwXwXwXwXwXwXwXwXwXwXwXwXwXwXwXwXwXwX",
"wXwXwXwXwXwXwXwXwX3Xx # 6 f k <.s.z.F.U.R.E.W.W.W.W.Q.Q.Q.Q.W.Y.F.j.k.w.5.3.0.M M e O.wXwXwXwXwXwXwXwXwXwXwXwXwXwXwXwXwXwXwXwXwX",
"wXwXwXwXwXwXwXwXwX< f a.s.s.s.s.s.s.s.s.h.x.J.J.J.R.W.W.W.W.Q.Q.Q.T.G.j.a.>.3.M M e O.wXwXwXwXwXwXwXwXwXwXwXwXwXwXwXwXwXwXwXwXwX",
"wXwXwXwXwXwXwXwXwX< 6 a p p 6 @ @ @ @ @ # $ a g l ,.<.d.j.F.U.W.Q.W.T.G.j.a.>.k m e O.wXwXwXwXwXwXwXwXwXwXwXwXwXwXwXwXwXwXwXwXwX",
"wXwXwXwXwXwXwXwXwX,Xi . $ p 6 $   X X X X   . . # # $ 6 f ,.f.l.F.J.R.R.U.F.j.<.l d z $.wXwXwXwXwXwXwXwXwXwXwXwXwXwXwXwXwXwXwXwX",
"wXwXwXwXwXwXwXwXwXwX>Xu.{ # $ p 5 $ . X X X X X X X X . # $ 6 s j 6.k.D.J.J.G.h.<.k d z $.wXwXwXwXwXwXwXwXwXwXwXwXwXwXwXwXwXwXwX",
"wXwXwXwXwXwXwXwXwXwXwXwX,X$.o.$ $ 5 $ # . X X X 2 o X X X X X X # $ 6 h 6.k.j.x.h.p.:.f s &.6XwXwXwXwXwXwXwXwXwXwXwXwXwXwXwXwXwX",
"wXwXwXwXwXwXwXwXwXwXwXwXwXwX3X[ [ 8 $ $ # . X X +.u o X X X X + < < o . $ p g 6.f.d.a.<.k 5 y.5XwXwXwXwXwXwXwXwXwXwXwXwXwXwXwXwX",
"wXwXwXwXwXwXwXwXwXwXwXwXwXwXwXwXwX| u u t # X X M. .< X X X X [ @. .1 X X X X $ a ;.p.p.:.k $ u.5XwXwXwXwXwXwXwXwXwXwXwXwXwXwXwX",
"wXwXwXwXwXwXwXwXwXwXwXwXwXwXwXwXwXwXwX7X=.X X X B.+.< X X X o M.1XM.i X X X X X X # p f :.:.k $ =.7XwXwXwXwXwXwXwXwXwXwXwXwXwXwX",
"wXwXwXwXwXwXwXwXwXwXwXwXwXwXwXwXwXwXwX&.o - I X B.+.< X X X o V.qXV.c X X X X X X     # 7 f k k q &.wXwXwXwXwXwXwXwXwXwXwXwXwXwX",
"wXwXwXwXwXwXwXwXwXwXwXwXwXwXwXwXwXwX$.K ` ).^.X +.2 X X X X o V.qX1Xc X X X X X X X X   . . 6 d f s $.wXwXwXwXwXwXwXwXwXwXwXwXwX",
"wXwXwXwXwXwXwXwXwXwXwXwXwXwXwXwXwX$.P ^.].(.! X < o X X X X X *.8XM.x X X X F J E W T T J F @ 6 d a z $.wXwXwXwXwXwXwXwXwXwXwXwX",
"wXwXwXwXwXwXwXwXwXwXwXwXwXwXwXwXwXu T |.|.!.Y X X X X X X X X 2 ..c 4 A G L ).[. X X]./.!./ Z % 6 a 5 i wXwXwXwXwXwXwXwXwXwXwXwX",
"wXwXwXwXwXwXwXwXwXwXwXwXwXwXwXwXwXu R .XoX`./ > X X X X X X X : 3 C R _.[. XoX+X$X+X X'./.!./ Z % $ t &.wXwXwXwXwXwXwXwXwXwXwXwX",
"wXwXwXwXwXwXwXwXwXwXwXwXwXwXwXwXwXu T  X@X+X[.!.> X X O ; : 3 / _.{.oX@X$X+X+XOXoX.X|.]._.!.!.^ : < &.wXwXwXwXwXwXwXwXwXwXwXwXwX",
"wXwXwXwXwXwXwXwXwXwXwXwXwXwXwX7X3X2 G ).+X*X+X[.!.3 = A ~._.{.oX$X=X=X=X*XOX X'././ ^ / /.!.^ ^ B #.5XwXwXwXwXwXwXwXwXwXwXwXwXwX",
"wXwXwXwXwXwXwXwXwXwXwXwXwXwXwX6X+ X X A `.+X-X-X$XoXoXoX$X-X-X-X-X-X&X+X|.~.~././ Q / ~.~././././ V [ wXwXwXwXwXwXwXwXwXwXwXwXwX",
"wXwXwXwXwXwXwXwXwXwXwXwX-.< < 1 ~ ^.3 V !.|.$X=X=X=X=X=X=X-X-X-X$X.X'.(././.~.^ ^ / '.+X+X+X+X+X'.! G [ wXwXwXwXwXwXwXwXwXwXwXwX",
"wXwXwXwXwXwXwXwXwXwX$.' n 1.e.2., ).).K Z /.|.+X=X-X-X-X-X=X$X+X X_./././.!./ !.!.].#X=X=X=X=X$XoX X^.G [ 7XwXwXwXwXwXwXwXwXwXwX",
"wXwXwXwXwXwXwXwXwX$.M 3.2.7.L.K.y D (.(.K Z /.[.$X&X&X&X$X+X|.[._././././.!.^ !.G S P ) _ [.=X*X$X+X|.^.A | 3XwXwXwXwXwXwXwXwXwX",
"wXwXwXwXwXwXwXwXwX< e.S.Z.r.Z.I.v @ T '.^.A F _.oX+X+X+XoX[._._././././.!./ ^ G n X.X.m n Z }.*X&X+XoX}.U X 2XwXwXwXwXwXwXwXwXwX",
"wXwXwXwXwXwXwXwXwX< N.I.P.Z.7.r.1.0 S ` '.( O /.oXoXoXoX X[._./././././.!.Q F r r.K.K.L.Z.0 A }.+XoX X].U X 2XwXwXwXwXwXwXwXwXwX",
"wXwXwXwXwXwXwXwXwX< N.0XI.L.Z.v 4.4.9 G _.( O Q &X&X+XoXoX.X].].].]._./.!.U X 2.i.r.C.P.S.9.r G ). X|._.U X 2XwXwXwXwXwXwXwXwXwX",
"wXwXwXwXwXwXwXwXwX2 N.9XI.S.Z.4.8.4.9 A /.( O ! &X-X&X$X$X+XoXoXoXoX|.'._./ X X y r.I.9XL.L.L.r _ [._._.U X 2XwXwXwXwXwXwXwXwXwX",
"wXwXwXwXwXwXwXwXwX6X' 1.9.9.9.8.v 2.9 A /.E O !.*X-X=X*X$X+X+X+X+XoX.X|._./ X 1.7.K.0X0X9XL.K.r R '._.!.U X 2XwXwXwXwXwXwXwXwXwX",
"wXwXwXwXwXwXwXwXwXwX2X..w 4.4.4.v v & A /.E * _.+X=X-X=X=X=X=X=X=X+XoX|._.^.X 4.C.I.0X0X9XS.9.9 R _./.!.U X 2XwXwXwXwXwXwXwXwXwX",
"wXwXwXwXwXwXwXwXwXwXwX,Xo.9 9 9 & & o A /.E = _.+X$X=X-X=X&X$X@X@X X[.].'._.F r 4.C.P.0X9X9.w o L /.~.! 4 u.6XwXwXwXwXwXwXwXwXwX",
"wXwXwXwXwXwXwXwXwXwXwXwX,X[ O K A O X A /.E = `.oXoX@X$X$X*X*X$X+X{.'._.!.!.^ * 9 2.7.b.q.w o 3 ~ /.~.E + 6XwXwXwXwXwXwXwXwXwXwX",
"wXwXwXwXwXwXwXwXwXwXwXwXwX:X; _./.; X A /.E * (. XoX+X@X$X-X-X-X$XXX{._./ / / * ; r w 0 X X X E _._.!.E + 6XwXwXwXwXwXwXwXwXwXwX",
"wXwXwXwXwXwXwXwXwXwXwXwXwX:X; _./.V O A / J 3 '.oX$X=X-X=X=X=X=X$X+XoX]./././.* H F ; * X X - ~ _._.!.I + 6XwXwXwXwXwXwXwXwXwXwX",
"wXwXwXwXwXwXwXwXwXwXwXwXwX:X; '.'./.3 A G 3 '.=X-X-X=X=X*X+X+X+XoX X[.'._././.* H /./.H X X U _.'._.!.I + 6XwXwXwXwXwXwXwXwXwXwX",
"wXwXwXwXwXwXwXwXwXwXwXwXwX:X; '. X(.3 X V '.=X=X-X-X&X$X$X+XoXoXoX[.'.'._././.* H /./.H X X / |.[._.!.I + 6XwXwXwXwXwXwXwXwXwXwX",
"wXwXwXwXwXwXwXwXwXwXwXwXwX:X= /. X'.3 C ^.].oX$X$X$X$X+XoXoXoXoX[.'.'.'._././.U : J !.H X X / |.[._.!.I + 6XwXwXwXwXwXwXwXwXwXwX",
"wXwXwXwXwXwXwXwXwXwXwXwXwX4X-.3 '.|.C A _. XoXoXoXoXoXoXoX X[.[._._.'.'._._./.^ ; G /./ Z X / '._./.!.I + 6XwXwXwXwXwXwXwXwXwXwX",
"wXwXwXwXwXwXwXwXwXwXwXwXwXwX<XX ^.].C A '.oXoXoX.X.X|.[.[.[.'.'././._.'.'._._.!.: Z !./.E X / _./.!.I D u.7XwXwXwXwXwXwXwXwXwXwX",
"wXwXwXwXwXwXwXwXwXwXwXwXwXwX3XO.G L A `  X+XoXoXoXoX X].'.'.'.'./.!./._._.'.'./.F V I /.^.B ^._./.!.F i wXwXwXwXwXwXwXwXwXwXwXwX",
"wXwXwXwXwXwXwXwXwXwXwXwXwXwX6X;X4 4 ` XX$X+XoXoXoXoXoX|.'.'.'.'././ / !./._._./.!.> V !././ _._./.! K $.wXwXwXwXwXwXwXwXwXwXwXwX",
"wXwXwXwXwXwXwXwXwXwXwXwXwX6X:X; ^..X*X*X$X+XoXoXoXoXoX|.'.'.'.'././ ^ ^ !.!.!.!.!.Z > U !./._./.!.A [ wXwXwXwXwXwXwXwXwXwXwXwXwX",
"wXwXwXwXwXwXwXwXwXwXwXwXwX:X= /. X*X=X-X*X$X+XoXoXoXoXoX X'.'.'.`./.!.^ ^ ^ ^ ^ !./ Z : ! !.!.!.^ V [ 7XwXwXwXwXwXwXwXwXwXwXwXwX",
"wXwXwXwXwXwXwXwXwXwXwXwXwX:X- ^ /. X&X-X=X=X=X+X+XoXoXoX X X X'.'./.!.!.^ ^ ^ ^ ^ ^ Q F ; ^ ^ ^ > B G ' wXwXwXwXwXwXwXwXwXwXwXwX",
"wXwXwXwXwXwXwXwXwXwXwXwXwX5X%X- ; ! _. X+X+X+X+X$X+X+X+X+XoX X X'._._._._._._._./.!.!.^ F - - - Z U U G ' 7XwXwXwXwXwXwXwXwXwXwX",
"wXwXwXwXwXwXwXwXwXwXwXwXwXwX5X;X;XD > T /././.'.].{.|.|. XoXoXoX X|.[._./././././.!./ / Q F F F Y F : D :X7XwXwXwXwXwXwXwXwXwXwX",
"wXwXwXwXwXwXwXwXwXwXwXwXwXwXwXwXwXy.&.} V V V A A G K K K P P P P P K G A A A A A V V V V V V V V } &.y.wXwXwXwXwXwXwXwXwXwXwXwX",
"wXwXwXwXwXwXwXwXwXwXwXwXwXwXwXwXwXwXwX:X| | | | | | | | | | | | | | | | | | | | | | | | | | | | | :XwXwXwXwXwXwXwXwXwXwXwXwXwXwX",
"wXwXwXwXwXwXwXwXwXwXwXwXwXwXwXwXwXwXwXwXwXwXwXwXwXwXwXwXwXwXwXwXwXwXwXwXwXwXwXwXwXwXwXwXwXwXwXwXwXwXwXwXwXwXwXwXwXwXwXwXwXwXwXwX",
"wXwXwXwXwXwXwXwXwXwXwXwXwXwXwXwXwXwXwXwXwXwXwXwXwXwXwXwXwXwXwXwXwXwXwXwXwXwXwXwXwXwXwXwXwXwXwXwXwXwXwXwXwXwXwXwXwXwXwXwXwXwXwXwX",
"wXwXwXwXwXwXwXwXwXwXwXwXwXwXwXwXwXwXwXwXwXwXwXwXwXwXwXwXwXwXwXwXwXwXwXwXwXwXwXwXwXwXwXwXwXwXwXwXwXwXwXwXwXwXwXwXwXwXwXwXwXwXwXwX",
"wXwXwXwXwXwXwXwXwXwXwXwXwXwXwXwXwXwXwXwXwXwXwXwXwXwXwXwXwXwXwXwXwXwXwXwXwXwXwXwXwXwXwXwXwXwXwXwXwXwXwXwXwXwXwXwXwXwXwXwXwXwXwXwX"
};
